<?xml version="1.0" encoding="UTF-8" standalone="no"?>
<svg
   version="1.1"
   width="1050"
   height="1050"
   id="svg8"
   sodipodi:docname="ATLA_Air.svg"
   inkscape:version="1.4.4 (dcaf3e7, 2026-05-05)"
   xmlns:inkscape="http://www.inkscape.org/namespaces/inkscape"
   xmlns:sodipodi="http://sodipodi.sourceforge.net/DTD/sodipodi-0.dtd"
   xmlns="http://www.w3.org/2000/svg"
   xmlns:svg="http://www.w3.org/2000/svg">
  <defs
     id="defs8" />
  <sodipodi:namedview
     id="namedview8"
     pagecolor="#ffffff"
     bordercolor="#000000"
     borderopacity="0.25"
     inkscape:showpageshadow="2"
     inkscape:pageopacity="0.0"
     inkscape:pagecheckerboard="0"
     inkscape:deskcolor="#d1d1d1"
     inkscape:zoom="0.5"
     inkscape:cx="-504"
     inkscape:cy="529"
     inkscape:window-width="2256"
     inkscape:window-height="1398"
     inkscape:window-x="-11"
     inkscape:window-y="-11"
     inkscape:window-maximized="1"
     inkscape:current-layer="svg8" />
  <path
     d="m 309.6846,55.850318 c 4.63446,-0.09399 9.26195,-0.05125 13.89551,0.05029 1.34095,0.02683 1.34095,0.02683 2.70899,0.0542 51.59775,1.164946 102.8924,9.75023 151.29101,27.945801 24.76439,9.732792 48.01944,22.225851 68.79566,38.890141 4.03295,3.22887 8.16371,6.26719 12.39184,9.23486 9.71337,6.85452 18.58072,14.27736 26.8125,22.875 0.33,0.99 0.66,1.98 1,3 -4.58107,-0.45133 -8.21465,-1.30979 -12.44014,-3.27188 -0.64366,-0.30989 -1.28732,-0.61978 -1.95048,-0.93906 -0.69309,-0.32382 -1.38618,-0.64765 -2.10027,-0.98129 -1.48436,-0.6937 -2.967,-1.39108 -4.44804,-2.09183 -3.94201,-1.86083 -7.90209,-3.68233 -11.86185,-5.505 -0.79209,-0.36497 -1.58419,-0.72993 -2.40028,-1.10596 -22.67252,-10.41714 -46.0203,-18.62955 -69.79894,-26.10498 -1.04462,-0.32871 -2.08925,-0.65742 -3.16553,-0.99609 -25.04563,-7.71319 -51.78948,-12.39342 -77.83447,-15.00391 -0.91636,-0.10151 -1.83272,-0.20303 -2.77685,-0.30762 -36.32681,-3.910882 -75.07617,-4.153396 -111.22315,1.30762 -1.16741,0.16629 -2.33481,0.33258 -3.5376,0.5039 -34.88499,5.05648 -69.26325,14.82647 -100.4624,31.4961 -15.4987,8.56898 -30.1106,18.82668 -43,31 -0.66,0 -1.32,0 -2,0 0,0.66 0,1.32 0,2 -0.96937,0.76313 -1.93875,1.52625 -2.9375,2.3125 -4.10909,3.52208 -7.38407,7.54839 -10.74219,11.77734 -1.49331,1.87293 -3.01745,3.72189 -4.57812,5.53907 -10.09695,11.80323 -17.1248,25.40226 -23.74219,39.37109 -0.52336,1.08152 -1.04672,2.16305 -1.58594,3.27734 -9.8309,21.45634 -14.59309,45.26222 -16.664059,68.66016 -2.008957,25.84259 -0.460347,49.96046 6.362789,74.99658 6.24379,21.57663 16.65738,41.94391 29.88721,60.06592 7.57753,10.36849 16.03203,19.81897 25,29 0.79535,0.83274 1.5907,1.66547 2.41016,2.52344 7.981,7.79802 17.94375,13.02434 27.58984,18.47656 0.74234,0.42346 1.48468,0.84692 2.24951,1.2832 21.70574,12.2891 45.3226,20.57457 69.84815,24.95508 17.15179,2.80746 34.84132,2.87445 51.95703,-0.20312 15.91607,-3.18132 30.21849,-8.6567 44.14453,-16.9375 11.99502,-7.66741 22.80623,-17.0541 31.80078,-28.09766 12.3684,-16.23221 21.66645,-34.39543 27.91406,-53.80469 5.67207,-18.38248 9.34316,-37.04375 11.08594,-56.19531 0.11215,-1.20785 0.2243,-2.4157 0.33984,-3.66016 0.66546,-8.66918 0.78953,-17.33562 0.84766,-26.02734 0.0131,-1.11617 0.0261,-2.23233 0.0396,-3.38232 0.009,-9.08795 -0.81439,-17.88271 -3.27002,-26.65674 -3.77393,-9.55719 -8.54226,-17.67772 -15.26953,-25.46094 -8.53651,-9.09605 -18.61535,-16.13166 -29.6875,-21.8125 -16.45666,-7.87057 -34.31827,-12.79733 -52.46094,-14.71875 -20.39011,-1.46786 -40.54777,-0.59727 -60.28906,4.90625 -11.00775,3.30878 -21.78186,8.56085 -31.17578,15.19922 -7.66989,5.96547 -14.69477,12.47142 -20.07422,20.61328 -4.5839,8.17416 -8.45791,16.96733 -10.33984,26.18359 -2.14378,13.29258 -1.79903,27.74081 0.47387,40.99122 0.79923,3.98856 1.77126,7.90806 2.86597,11.82519 0.21963,0.79116 0.43925,1.58233 0.66553,2.39746 2.50057,8.72459 5.44339,17.07487 10.29541,24.80176 7.09706,9.74826 15.97141,18.57136 25.65234,25.73437 7.20211,4.84658 14.91558,8.15201 23.23365,10.6128 9.89917,2.08557 21.94598,1.19594 31.93823,-0.0425 9.20334,-1.43644 17.52619,-4.44559 25.70703,-8.84375 4.1624,-2.52967 7.3074,-5.31599 10.38281,-9.09766 2.70813,-3.72994 4.61833,-7.20991 6.125,-11.5625 1.41691,-5.9892 1.48523,-11.88067 1,-18 -1.5536,-7.39647 -4.18314,-14.00605 -8.04687,-20.48828 -1.21243,-1.92298 -2.66092,-2.90768 -4.45313,-4.32422 -4.00635,-3.02622 -7.73677,-4.65646 -12.5,-6.1875 -2.7084,-0.0271 -5.41653,-0.0469 -8.125,-0.0625 -0.76055,-0.008 -1.52109,-0.0168 -2.30469,-0.0254 -4.32406,-0.0186 -8.30193,0.32054 -12.57031,1.08789 -1.79068,0.0631 -3.58337,0.0867 -5.375,0.0625 -1.31098,-0.0135 -1.31098,-0.0135 -2.64844,-0.0273 -0.97839,-0.0174 -0.97839,-0.0174 -1.97656,-0.0352 -0.33,-0.99 -0.66,-1.98 -1,-3 1.65,-1.98 3.3,-3.96 5,-6 9.00253,-4.31371 18.09193,-6.96129 28,-8 4.66951,-0.26977 9.32825,-0.19709 14,0 10.15532,4.06213 10.15532,4.06213 14.5625,7.8125 4.4588,4.03685 7.83855,8.06068 10.90625,13.22656 4.09072,7.91012 7.0519,16.17612 8.53125,24.96094 0.90761,8.5912 0.9905,17.55745 -1.0625,25.98047 -1.96829,6.82332 -4.62813,13.14756 -8.5625,19.08203 -4.18834,5.15852 -8.9941,9.30557 -14.6001,12.87451 -12.58137,7.53498 -26.01792,11.77504 -40.28271,14.80908 -15.67797,2.68713 -31.9315,1.85832 -47.55469,-0.77343 -15.70091,-2.93331 -30.82833,-9.12306 -44.5625,-17.22266 -11.52121,-7.0231 -22.50614,-15.54781 -31.375,-25.75 -6.50585,-8.35126 -11.5935,-16.887 -15.00415,-26.96802 -0.92469,-3.06136 -1.78752,-6.13203 -2.62085,-9.21948 -0.44883,-1.63376 -0.44883,-1.63376 -0.90674,-3.30054 -2.27597,-8.44033 -4.17744,-16.8635 -5.46826,-25.51196 -0.18176,-1.16918 -0.36351,-2.33836 -0.55078,-3.54297 -1.86025,-15.50516 -1.6633,-32.63384 1.78491,-47.8728 3.47049,-13.98373 8.96786,-26.64097 16.78931,-38.70532 8.17767,-11.44571 18.28985,-21.55939 29.87695,-29.53907 1.68897,-1.12974 3.39405,-2.2353 5.09961,-3.33984 1.42506,-0.93392 1.42506,-0.93392 2.87891,-1.88672 16.71039,-10.34231 36.1785,-16.76027 55.32031,-20.78613 29.72439,-5.71136 59.88768,-5.93051 89.80078,-1.32715 25.21496,4.36499 25.21496,4.36499 36.04761,10.08032 1.80316,1.10343 3.53709,2.26443 5.26489,3.48218 0.62898,0.432 1.25797,0.864 1.90601,1.30908 11.86218,8.25208 23.00304,17.51702 33.78149,27.12842 0.8843,0.78633 1.76859,1.57266 2.67969,2.38281 10.78596,10.16568 18.95257,22.94546 25.7334,36.04786 10.65927,21.4995 17.66354,45.00219 20.81347,68.78637 2.31956,20.94848 1.93868,42.81468 -2.82861,63.38013 -5.1688,21.00431 -13.31236,40.54951 -25.14404,58.64502 -6.40253,9.52944 -13.62889,17.96924 -21.67432,26.14307 -1.38586,1.4167 -2.74124,2.8631 -4.09131,4.31396 -14.60852,15.4022 -33.19607,26.68903 -51.99658,36.23682 -24.23286,11.87322 -50.44259,18.80566 -77.1792,21.87646 -33.50647,3.41865 -66.77639,0.42724 -99.43603,-7.57812 -25.82403,-6.54118 -53.16754,-15.41842 -75.41553,-30.47266 -1.21817,-0.87205 -1.21817,-0.87205 -2.46094,-1.76172 -0.95648,-0.67418 -1.91297,-1.34836 -2.89844,-2.04297 -7.54649,-5.48042 -14.35934,-11.54009 -21.101559,-17.95703 -0.951328,-0.87205 -0.951328,-0.87205 -1.921875,-1.76172 C 61.159229,469.43388 50.132259,451.15258 41.24808,433.47092 28.373461,407.03454 21.171944,378.24183 17.896517,349.0842 c -3.669668,-36.30961 -0.783212,-72.75643 8.026368,-108.15112 7.329041,-27.9372 18.696454,-54.92254 34.657226,-79.03247 7.204575,-10.36493 15.239441,-19.92567 23.999999,-29 0.92993,-0.99326 1.85962,-1.98675 2.78906,-2.98047 15.05253,-15.84219 33.86338,-27.46783 53.27344,-37.269529 2.62942,-1.286947 5.27681,-2.529131 7.9375,-3.75 0.69287,-0.318882 1.38574,-0.637763 2.09961,-0.966308 41.03102,-18.61935 85.6265,-27.213397 130.32227,-30.772461 9.55585,-0.697651 19.10561,-1.082653 28.68261,-1.311524 z"
     fill="#000000"
     id="path4" />
  <path
     d="m 854.2637,100.49827 c 12.38153,3.73541 24.44311,8.28695 36.31641,13.40234 0.77376,0.33194 1.54752,0.66387 2.34473,1.00586 19.75266,8.59968 38.12051,19.94969 54.83838,33.51953 1.64661,1.33641 3.30918,2.64931 4.97705,3.95899 15.85359,12.84652 30.94133,27.93049 42.83983,44.51562 0.8382,1.12232 1.6781,2.24339 2.5195,3.36328 6.0672,8.16893 11.3274,16.73537 16.3252,25.59326 1.0561,1.86802 2.1317,3.72339 3.21,5.57862 6.5281,11.62742 11.2627,24.00188 15.9453,36.46484 0.2907,0.75958 0.5814,1.51916 0.8809,2.30176 4.5895,12.19355 5.8956,24.80404 7.1191,37.69824 0.1436,1.394 0.1436,1.394 0.2901,2.81616 1.0171,11.09804 0.9536,22.23615 0.9599,33.37134 7e-4,1.06942 0,2.13884 0,3.24066 -0.024,23.87813 -2.1329,46.42584 -8.2521,69.57184 -0.2149,0.82629 -0.4299,1.65258 -0.6514,2.50391 -9.6195,36.29272 -28.3559,69.6266 -49.665,100.25781 -1.2259,1.74745 -2.4537,3.4936 -3.6836,5.23828 -0.5515,0.78327 -1.1031,1.56653 -1.6714,2.37354 -8.21694,11.61967 -16.80337,22.95775 -25.4863,34.23193 -1.66843,2.16856 -3.32838,4.34333 -4.98682,6.51953 -8.22803,10.72849 -17.28342,19.45777 -27.85547,27.875 -1.15869,0.94784 -2.31618,1.89712 -3.47266,2.84766 -8.23748,6.73587 -16.72566,12.93414 -25.57177,18.84521 -1.88205,1.25799 -3.75736,2.52545 -5.63135,3.79541 -38.24037,25.82487 -78.91611,50.49666 -122.32422,66.51172 -1.15665,0.43373 -1.15665,0.43373 -2.33667,0.87622 -3.48639,1.24663 -6.45586,2.10643 -10.16724,2.41675 -1.514,-0.0522 -1.514,-0.0522 -3.05859,-0.10547 -1.03254,-0.0271 -2.06508,-0.0541 -3.12891,-0.082 -1.14275,-0.0522 -1.14275,-0.0522 -2.30859,-0.10547 0,-0.99 0,-1.98 0,-3 0.53109,-0.32613 1.06219,-0.65226 1.60938,-0.98828 1.05961,-0.65549 1.05961,-0.65549 2.14062,-1.32422 0.69609,-0.42926 1.39219,-0.85851 2.10938,-1.30078 2.13587,-1.33881 2.13587,-1.33881 4.00024,-2.84033 2.12312,-1.53392 4.14465,-2.59748 6.5271,-3.6753 0.8474,-0.38994 1.69479,-0.77988 2.56787,-1.18164 0.90186,-0.41314 1.80372,-0.82628 2.73291,-1.25195 27.38779,-12.81399 52.62423,-30.52007 75.3125,-50.4375 1.09828,-0.94939 1.09828,-0.94939 2.21875,-1.91797 1.9389,-1.68115 3.86092,-3.3797 5.78125,-5.08203 0.72075,-0.63591 1.4415,-1.27182 2.18408,-1.927 6.37862,-5.67706 12.4794,-11.58519 18.50342,-17.6355 0.89783,-0.89396 1.79567,-1.78793 2.7207,-2.70898 5.07323,-5.08066 9.94303,-10.25783 14.5918,-15.72852 0.87715,-1.00951 1.75473,-2.01865 2.63281,-3.02734 7.47624,-8.73009 14.48526,-17.76896 21.36719,-26.97266 0.53383,-0.70753 1.06767,-1.41507 1.61768,-2.14404 9.3506,-12.42859 17.5108,-25.44938 25.38232,-38.85596 0.42765,-0.72397 0.85529,-1.44794 1.2959,-2.19385 2.67312,-4.54744 5.22633,-9.14954 7.7041,-13.80615 0.45053,-0.84514 0.90106,-1.69028 1.36524,-2.56103 18.60476,-35.24101 31.62555,-73.27621 37.09175,-112.80616 2.8568,-23.0534 2.9587,-47.18027 -1.9609,-69.96679 -1.1644,-4.67938 -2.7359,-9.17836 -4.49609,-13.66602 -0.41161,-1.06831 -0.41161,-1.06831 -0.83154,-2.1582 -12.48022,-31.98358 -30.17222,-61.50148 -52.16846,-87.8418 -2.26171,-2.44297 -4.56498,-4.72731 -7,-7 0,-0.66 0,-1.32 0,-2 -0.58008,-0.25652 -1.16016,-0.51305 -1.75781,-0.77734 -2.44941,-1.33566 -4.10973,-2.8519 -6.11719,-4.78516 -5.30243,-4.80073 -11.14391,-8.50453 -17.2041,-12.24463 -1.96139,-1.21801 -3.90704,-2.45832 -5.85059,-3.70459 -21.29955,-13.60877 -43.45482,-23.41618 -68.21045,-28.96826 -19.33123,-4.10297 -39.52617,-4.5658 -59.08593,-1.93848 -21.96184,3.31303 -43.16908,9.91507 -62.77393,20.41846 -20.19517,11.18267 -38.57047,25.74029 -53.75781,43.19141 -8.44235,10.575 -16.01195,21.78944 -22.24219,33.80859 -0.33483,0.64373 -0.66967,1.28745 -1.01465,1.95068 -5.61465,10.9578 -9.87538,22.13557 -12.98535,34.04932 -0.21173,0.80937 -0.42346,1.61874 -0.6416,2.45264 -4.47707,18.02533 -4.5783,37.0361 -3.12695,55.49023 0.55719,5.11615 1.53813,10.06458 2.76855,15.05713 0.16097,0.7048 0.32194,1.40959 0.48779,2.13574 4.18345,18.10817 11.82055,35.16305 21.41358,51.03516 1.07254,1.78566 2.10588,3.59 3.13769,5.39941 6.18025,10.53089 14.40056,19.13449 23.76416,26.93116 3.90288,3.09373 7.9684,5.87068 12.19678,8.49853 0.57122,0.35643 1.14243,0.71285 1.73096,1.08008 12.50287,7.61318 26.61527,12.49542 40.92773,15.41748 3.10379,0.57743 6.21603,1.0575 9.34131,1.50244 0.8843,0.1302 1.76859,0.26039 2.67969,0.39453 16.45534,2.0232 33.81806,0.56693 49.94531,-3.14453 17.76392,-4.36401 34.5491,-11.38459 49.84766,-21.46094 4.33765,-3.07054 8.43598,-6.40135 12.52734,-9.78906 1.51594,-1.14469 1.51594,-1.14469 3.0625,-2.3125 8.27378,-7.56963 15.29152,-17.21261 20.78516,-26.96875 5.15126,-9.88692 8.64502,-19.74045 10.40234,-30.78125 1.58144,-12.96496 0.55019,-25.21491 -2.25,-37.9375 -3.11114,-12.42383 -8.15827,-24.1701 -15,-35 -2.77795,-3.90236 -5.75533,-7.48006 -9,-11 -0.91652,-1.05381 -0.91652,-1.05381 -1.85156,-2.12891 -5.74268,-6.24363 -12.7767,-10.77785 -20.14844,-14.87109 -10.44643,-5.32744 -21.03801,-8.14257 -32.625,-9.6875 -1.45674,-0.12448 -2.91539,-0.228 -4.375,-0.3125 -0.81726,-0.0529 -1.63453,-0.1057 -2.47656,-0.16016 -13.02088,-0.4218 -26.29735,1.65075 -38.72461,5.46753 -12.8723,4.2371 -24.39905,9.75075 -35.17383,18.00513 -6.06825,4.86066 -11.31126,10.17568 -15.625,16.6875 -2.58013,4.76858 -4.96023,9.64676 -6,15 -0.45648,5.03631 -0.44311,9.9199 0.61328,14.87891 1.6073,4.97766 3.82972,9.11296 6.94922,13.30859 5.00734,5.81586 10.69098,10.1106 17.34863,13.90039 10.00925,5.5544 10.00925,5.5544 20.917,8.74805 4.4035,0.33264 8.75785,0.27581 13.17187,0.16406 3.3,-1.32 6.6,-2.64 10,-4 3.17219,-3.29419 6.09981,-6.33916 8.28516,-10.37109 2.53931,-6.0345 3.78133,-12.16801 4.71484,-18.62891 0.99,0.99 1.98,1.98 3,3 1.35368,3.42151 2.00862,6.17063 2.19531,9.86719 -0.0131,1.33608 -0.0367,2.67209 -0.0703,4.00781 -0.009,0.68836 -0.0181,1.37672 -0.0273,2.08594 -0.0233,1.67984 -0.0592,3.3595 -0.0977,5.03906 -2.22692,5.85086 -4.91723,11.0096 -8.89844,15.86328 -3.85912,3.92368 -8.20808,6.66104 -13.10156,9.13672 -6.14868,2.52549 -12.34399,4.50696 -19,5 -1.0306,0.0948 -1.0306,0.0948 -2.08203,0.19141 -7.58751,0.39007 -14.83677,-1.35359 -22.04492,-3.5586 -7.94047,-2.6827 -14.6214,-7.6334 -21.16529,-12.74853 -7.34609,-5.90549 -13.83362,-12.28769 -19.07885,-20.16162 -4.75276,-7.94405 -8.3305,-16.18919 -10.15625,-25.28516 -1.09053,-7.93107 -1.27008,-15.71222 0.2539,-23.58984 2.3232,-10.49861 5.89541,-20.30044 11.63501,-29.41382 5.1485,-7.88043 11.07855,-14.71047 17.63843,-21.43384 0.58008,-0.64195 1.16016,-1.28391 1.75781,-1.94531 7.01178,-7.57553 16.02026,-13.51637 25.11914,-18.29981 3.33435,-1.67695 6.71315,-3.23835 10.12305,-4.75488 0.61505,-0.27828 1.23009,-0.55655 1.86377,-0.84326 14.50157,-6.41975 30.79915,-9.60655 46.54932,-10.99341 22.8226,-1.44095 45.65876,0.20935 67.73535,6.33276 13.6681,4.07728 26.39173,9.99256 37.85156,18.50391 3.49157,2.85364 6.76487,5.86119 10,9 0.68449,0.61102 1.36899,1.22203 2.07422,1.85156 7.8392,7.23856 13.20637,16.67075 18.17578,26.02344 5.40369,11.30134 9.0716,23.98157 10.52295,36.42432 1.42296,16.92559 0.97012,34.11067 -2.77295,50.70068 -0.17161,0.77457 -0.34321,1.54913 -0.52002,2.34717 -5.19316,22.80071 -14.69581,44.20742 -27.30029,63.87549 -6.04458,9.1069 -13.16704,17.3531 -20.71143,25.2417 -0.99805,1.04385 -1.99105,2.09255 -2.97949,3.1455 -13.21872,14.04463 -28.52127,24.69903 -45.65625,33.50391 -16.21339,8.04292 -33.73215,13.23589 -51.70361,15.41748 -24.6553,2.5001 -50.72739,-0.15652 -74.73828,-6.03906 -9.09638,-2.41592 -17.73727,-5.82359 -26.39063,-9.49219 -1.08426,-0.45327 -2.16852,-0.90653 -3.28564,-1.37353 -18.67196,-7.85206 -35.44702,-16.18382 -50.71436,-29.62647 -0.92426,-0.79148 -1.84851,-1.58297 -2.80078,-2.39844 -6.48433,-5.68612 -11.99392,-11.73346 -17.19922,-18.60156 -0.40605,-0.53109 -0.81211,-1.06219 -1.23047,-1.60937 -10.37945,-13.66895 -18.34282,-28.47812 -23.55908,-44.87207 -3.96824,-13.01968 -6.61205,-26.01176 -8.21045,-39.51856 -0.13148,-1.0132 -0.26297,-2.02641 -0.39844,-3.07031 -3.13806,-29.09073 0.79426,-59.10839 7.51416,-87.40723 5.22111,-20.79792 11.59149,-42.70748 23.34131,-60.87012 7.72261,-11.36621 17.02185,-21.7802 26.54297,-31.65234 0.694,-0.72123 1.388,-1.44246 2.10303,-2.18555 9.76068,-10.08803 19.57467,-19.51238 30.89697,-27.81445 0.82371,-0.66516 1.64742,-1.33031 2.49609,-2.01562 8.67629,-6.82998 18.64189,-11.53494 28.4751,-16.4585 2.85119,-1.4364 5.68062,-2.90904 8.50928,-4.38916 19.40284,-9.94217 41.06131,-17.383857 62.65625,-20.734375 35.05152,-3.650462 70.59128,-1.599233 104.54687,8.195315 z"
     fill="#000000"
     id="path6" />
  <path
     d="m 564.00345,529.57249 c 24.53315,7.14446 46.92299,20.22166 67.45166,35.23437 20.20132,15.0557 39.43079,32.51095 54.125,53.09375 0.62262,0.83918 1.24524,1.67836 1.88672,2.54297 13.93258,19.19253 24.74602,41.03361 31.37549,63.79492 3.70001,13.3504 6.6196,26.83626 7.73779,40.66211 0.0617,0.75426 0.12343,1.50853 0.18701,2.28565 2.06989,27.05129 -0.60505,54.16709 -7.70678,80.36669 -8.25832,29.01368 -21.17416,56.16526 -38.60523,80.78516 -15.54779,21.47511 -34.39945,41.92095 -55.875,57.5625 -0.64904,0.48276 -1.29808,0.96551 -1.9668,1.46289 -21.85261,16.22802 -46.09033,28.35153 -72.0332,36.53711 -0.75104,0.23703 -1.50208,0.47405 -2.27588,0.71826 -29.77257,9.20578 -60.40537,11.17058 -91.38428,9.7544 -39.02246,-1.95691 -78.1674,-9.42115 -114.33984,-24.47266 -16.2889,-7.15299 -32.20912,-15.06866 -47,-25 -0.62358,-0.41701 -1.24717,-0.83402 -1.88965,-1.26367 -8.27197,-5.59023 -15.97668,-11.74984 -23.48999,-18.3208 -1.15673,-1.01051 -2.31898,-2.01471 -3.48486,-3.01465 -11.67896,-10.07355 -22.83764,-21.07339 -32.1355,-33.40088 -0.60473,-0.78214 -0.60473,-0.78214 -1.22168,-1.58008 -22.3565,-28.94773 -38.53841,-61.87948 -49.65756,-96.63687 -14.85544,-47.17777 -19.61044,-96.21668 -20.62344,-145.4537 -0.0598,-2.89308 -0.12493,-5.78601 -0.19068,-8.67896 -0.12253,-5.54985 -0.22345,-11.09981 -0.30664,-16.65039 -0.013,-0.84512 -0.026,-1.69024 -0.0394,-2.56097 -0.11831,-8.73079 -0.1337,-17.30451 1.3519,-25.93903 0.13318,-0.83241 0.26635,-1.66482 0.40357,-2.52246 0.97472,-5.83119 2.32805,-11.3893 4.28393,-16.97754 1.32,-0.66 2.64,-1.32 4,-2 1.74516,5.64047 2.8078,11.266 3.79297,17.08203 1.82778,10.39493 4.20924,20.58438 6.80969,30.80942 3.77367,14.86446 7.26511,29.73311 10.14734,44.79605 8.45833,43.89473 23.78445,85.54198 46.61328,124.05859 6.09682,10.07665 12.57856,19.82762 19.63672,29.25391 0.59627,0.80244 0.59627,0.80244 1.20459,1.62109 11.75251,15.77721 24.70508,32.1403 39.86963,44.76172 2.21592,1.86084 4.30903,3.83187 6.42578,5.80469 16.16939,14.52046 34.80448,26.71558 54.49756,35.87695 2.03874,0.95251 4.06088,1.93571 6.08447,2.91993 24.12367,11.48044 50.81668,17.7956 77.31079,20.62304 8.16361,0.76774 16.35207,0.74334 24.54468,0.70508 0.89635,-0.003 1.7927,-0.006 2.71622,-0.01 26.15756,-0.13441 49.6829,-3.55614 74.34628,-12.30295 6.18885,-2.30616 12.13243,-4.97288 18,-8 1.08765,-0.55808 1.08765,-0.55808 2.19727,-1.12744 26.14016,-13.59628 51.13296,-31.49986 71.25341,-53.12793 2.67171,-3.00851 5.14187,-6.14719 7.54932,-9.36963 0.43272,-0.57275 0.86545,-1.14549 1.31128,-1.73559 4.47002,-6.21965 7.58794,-12.93342 9.76733,-20.27076 1.0924,-4.10046 2.04618,-8.23054 2.98389,-12.36865 0.17081,-0.73734 0.34162,-1.47469 0.51761,-2.23437 3.26737,-14.13659 5.76038,-28.34425 7.41989,-42.76563 0.12772,-1.10525 0.12772,-1.10525 0.25803,-2.23283 0.64039,-5.88987 0.91531,-11.70794 0.9451,-17.63045 0.006,-0.91267 0.0114,-1.82534 0.0173,-2.76567 0.009,-1.92356 0.016,-3.84713 0.0198,-5.77071 0.01,-2.86773 0.0407,-5.73472 0.0723,-8.60229 0.12503,-21.75714 -3.23359,-42.57363 -10.34546,-63.14771 -5.8953,-16.24069 -14.6653,-30.88309 -25.67016,-44.15112 -9.68938,-11.26367 -21.58137,-20.33014 -34.48438,-27.63672 -16.8049,-9.155 -34.66238,-15.18578 -53.5498,-18.21362 -23.31464,-3.47611 -47.18517,-2.83144 -70.29786,1.75317 -21.53115,4.58878 -42.05003,12.05509 -60.96484,23.39795 -8.70938,5.49546 -16.55188,11.89512 -24,19 -0.66,0 -1.32,0 -2,0 -0.36932,0.85658 -0.36932,0.85658 -0.74609,1.73047 -1.45829,2.63945 -3.20679,4.42776 -5.31641,6.58203 -6.55434,7.17706 -11.43645,15.28102 -15.50781,24.08203 -1.28095,3.17169 -2.39223,6.34662 -3.42969,9.60547 -0.3184,0.9191 -0.6368,1.8382 -0.96484,2.78516 -3.12179,10.6889 -2.69899,22.10519 -2.24658,33.1333 0.47798,6.96672 1.97587,13.48207 4.21142,20.08154 0.21431,0.63406 0.42861,1.26812 0.64942,1.92139 6.264,17.91212 16.22167,33.86724 28.17089,48.52783 5.47418,6.40616 11.17899,12.63421 17.17969,18.55078 0,0.66 0,1.32 0,2 0.58008,0.25652 1.16016,0.51305 1.75781,0.77734 2.44941,1.33566 4.10973,2.8519 6.11719,4.78516 6.64768,5.99274 14.00752,11.10241 22.16406,14.82422 11.33752,4.11023 23.19913,4.8169 35.14844,4.92578 15.04305,-0.0616 29.4068,-1.94141 43.64209,-6.91748 7.31337,-2.70337 13.83774,-5.81709 20.03369,-10.60986 5.51117,-4.72066 9.66694,-9.50267 13.32813,-15.75391 1.34225,-2.24965 2.70777,-4.36352 4.21093,-6.5 7.33494,-10.45069 13.01319,-21.24559 16.47266,-33.59375 1.92047,-8.89419 2.74923,-17.82389 1.52344,-26.87744 -1.35783,-8.07396 -4.20007,-15.26873 -8.15625,-22.41943 -3.55272,-5.99696 -8.03271,-10.808 -13.23828,-15.40235 -5.6003,-4.47347 -11.81997,-7.57004 -18.45313,-10.21484 -7.23294,-2.37037 -14.55253,-2.61114 -22.10156,-2.3711 -5.10512,0.30454 -9.76389,1.35604 -14.58984,3.0586 -4.36509,1.96787 -8.02359,4.42847 -11.85938,7.28906 -4.10735,8.78099 -4.10735,8.78099 -4.25,13.6875 0.0168,5.34343 1.31018,9.99698 2.99609,15.04297 2.43368,6.34575 5.31538,11.90903 9.64063,17.17578 2.15945,2.4137 4.35119,4.77637 6.61328,7.09375 -0.66,0.99 -1.32,1.98 -2,3 -1.65,-0.33 -3.3,-0.66 -5,-1 -23.02842,-16.42694 -23.02842,-16.42694 -29.75391,-25.95312 -2.84118,-4.66703 -5.16105,-9.67286 -6.24609,-15.04688 -0.46426,-4.69591 -0.39424,-9.19201 0.61328,-13.8125 1.62171,-5.02945 3.82715,-9.15898 7.01172,-13.375 5.26382,-6.10256 10.97611,-10.95642 18.00781,-14.91016 11.18323,-5.99071 22.82426,-10.15279 35.36719,-12.21484 12.93509,-1.5235 25.28751,-1.0636 37.97022,1.80762 8.3862,2.08596 16.37346,5.11001 23.66259,9.78222 7.61922,5.54468 14.6323,12.2375 20.36719,19.72266 6.16711,9.34004 10.00695,19.96835 13.04297,30.67969 3.90541,17.93188 3.18199,37.94515 0.77466,56.073 -2.31974,15.19997 -6.51807,28.91058 -13.71607,42.52465 -2.90102,5.27034 -6.35083,10.02714 -10.10156,14.72266 -1.08281,1.38639 -1.08281,1.38639 -2.1875,2.80078 -11.98995,15.04989 -26.57977,26.89927 -42.86963,37.04248 -5.78365,3.44345 -11.84052,6.33016 -17.94287,9.15674 -1.12793,0.53367 -2.25586,1.06734 -3.41797,1.61719 -9.8781,4.47004 -20.10626,7.63649 -30.58203,10.38281 -0.694,0.18224 -1.388,0.36448 -2.10303,0.55225 -14.64139,3.64493 -30.4614,3.57079 -45.41113,2.2207 -8.84975,-1.13346 -17.45292,-3.93332 -25.48584,-7.77295 -10.38684,-5.66805 -18.61768,-13.79185 -27,-22 -0.71978,-0.69932 -1.43956,-1.39863 -2.18115,-2.11914 -8.45952,-8.23607 -16.70219,-16.43608 -23.81885,-25.88086 -0.42442,-0.55333 -0.84885,-1.10666 -1.28613,-1.67676 -6.93575,-9.05923 -13.09384,-18.39773 -18.71387,-28.32324 -0.3466,-0.6028 -0.69319,-1.20559 -1.05029,-1.82666 -9.02506,-15.78219 -15.01472,-32.44557 -18.94971,-50.17334 -0.16516,-0.72671 -0.33032,-1.45342 -0.50049,-2.20215 -3.88321,-17.80575 -3.89485,-36.96252 -1.72558,-55.0039 2.7678,-19.07049 9.31421,-37.99347 18.41577,-54.95777 10.91724,-19.67667 25.63111,-37.57383 42.57348,-52.37671 7.71159,-6.48841 15.93206,-12.1824 24.53516,-17.41845 1.61694,-0.98919 3.21652,-2.00657 4.81494,-3.02539 17.00891,-10.38396 36.56798,-17.27043 55.99658,-21.4458 31.22761,-6.15689 61.76471,-4.36765 92.31348,4.10205 z"
     fill="#000000"
     id="path8" />
</svg>
