<?xml version="1.0" encoding="UTF-8" standalone="no"?>
<svg
   version="1.1"
   width="1000"
   height="1000"
   id="svg8"
   sodipodi:docname="ATLA_Water.svg"
   inkscape:version="1.4.4 (dcaf3e7, 2026-05-05)"
   xmlns:inkscape="http://www.inkscape.org/namespaces/inkscape"
   xmlns:sodipodi="http://sodipodi.sourceforge.net/DTD/sodipodi-0.dtd"
   xmlns="http://www.w3.org/2000/svg"
   xmlns:svg="http://www.w3.org/2000/svg">
  <defs
     id="defs8" />
  <sodipodi:namedview
     id="namedview8"
     pagecolor="#ffffff"
     bordercolor="#000000"
     borderopacity="0.25"
     inkscape:showpageshadow="2"
     inkscape:pageopacity="0.0"
     inkscape:pagecheckerboard="0"
     inkscape:deskcolor="#d1d1d1"
     inkscape:zoom="0.72263336"
     inkscape:cx="417.91594"
     inkscape:cy="768.71624"
     inkscape:window-width="2256"
     inkscape:window-height="1398"
     inkscape:window-x="-11"
     inkscape:window-y="-11"
     inkscape:window-maximized="1"
     inkscape:current-layer="svg8" />
  <path
     d="m 559.68258,10.649999 c 1.16592,0.137084 2.33184,0.27417 3.53308,0.415408 58.61919,7.165716 115.26742,24.550923 168.13616,50.800825 7.06244,3.605174 13.99402,7.426372 20.86587,11.381392 0.79607,0.458022 1.59214,0.916031 2.41234,1.387941 17.57371,10.18643 34.53381,21.40513 50.70079,33.704685 0.6758,0.51331 1.35159,1.02666 2.04786,1.55557 16.06891,12.25037 31.61039,25.18407 45.75619,39.64267 1.66509,1.62844 3.41207,3.12015 5.19053,4.62367 3.64038,3.14714 6.79043,6.58978 9.96611,10.19953 2.41712,2.70933 4.88924,5.35441 7.3822,7.9935 5.92261,6.27587 11.57064,12.66644 16.91439,19.44854 0.80096,0.99827 1.60248,1.99609 2.40447,2.99354 33.60305,42.01913 60.39601,89.44283 78.21371,140.22222 0.34515,0.96097 0.69039,1.92196 1.04625,2.91204 15.80457,44.13545 25.53194,92.33961 25.70294,139.28488 0.01,1.84042 0.01,1.84042 0.02,3.71804 0.019,3.94131 0.024,7.88258 0.024,11.82393 3e-4,0.67175 6.3e-4,1.34349 9.3e-4,2.03559 0,19.91316 -0.19883,39.56982 -3.0833,59.31719 -0.1959,1.3919 -0.3914,2.78386 -0.5862,4.17586 -8.1624,57.55433 -26.22492,112.39459 -53.47544,163.69957 -3.57392,6.55448 -7.27004,13.03746 -11.00211,19.50294 -1.12394,1.9566 -2.231,3.92036 -3.32469,5.89399 -8.57595,15.3784 -18.12605,30.16688 -28.94796,44.05797 -1.25434,1.61701 -2.48913,3.24694 -3.71782,4.88349 -7.50955,9.96715 -15.42014,19.66886 -24.40034,28.35342 -1.60286,1.60286 -3.04229,3.26764 -4.48292,5.01641 -3.13985,3.72441 -6.72139,6.75891 -10.43292,9.89944 -0.96944,0.84826 -1.93755,1.698 -2.90462,2.54896 -7.03662,6.16009 -14.30481,11.8785 -21.82174,17.43885 -3.46383,2.56535 -6.8659,5.20064 -10.2477,7.87287 -0.53955,0.42423 -1.0791,0.84849 -1.635,1.28559 -2.96379,2.33312 -5.91114,4.68481 -8.8461,7.05409 -18.12032,14.50471 -37.7778,27.22831 -57.92578,38.72709 -0.79897,0.45618 -1.59794,0.91238 -2.42111,1.38238 -50.77297,28.76561 -106.17434,48.08077 -163.62039,58.1068 -58.26504,9.6495 -118.56564,9.993 -176.72872,-0.67849 -58.85023,-11.02127 -115.55154,-30.85651 -167.23378,-61.3168 -16.70807,-9.98473 -32.76754,-20.82517 -48.42112,-32.38273 -1.21636,-0.89793 -2.4328,-1.79575 -3.64933,-2.69344 -0.60083,-0.44351 -1.20167,-0.88701 -1.82071,-1.34395 -3.48286,-2.55678 -7.00921,-5.00634 -10.62766,-7.36992 -18.48823,-12.18485 -36.18111,-25.84283 -51.45336,-41.90958 0,-0.62599 0,-1.25197 0,-1.8969 -0.62598,0 -1.25195,0 -1.89689,0 -10.41912,-12.46525 -20.4545,-25.31801 -29.401921,-38.8864 -0.47498,-0.71906 -0.94995,-1.4381 -1.43933,-2.17893 -7.86043,-11.97043 -15.07223,-24.21698 -21.98586,-36.75564 -2.302678,-4.17432 -4.667926,-8.30284 -7.092288,-12.40741 C 37.370708,686.72805 18.534982,635.03578 8.1522058,580.98635 5.3653353,565.79533 3.3899723,550.52158 1.9946993,535.14219 c -0.09077,-0.91375 -0.181558,-1.8275 -0.275088,-2.76894 -2.788561,-32.04846 -2.26927496,-65.87766 2.171986,-97.76664 0.09433,-0.67743 0.188663,-1.35486 0.285852,-2.05284 C 12.21582,375.69044 29.450565,320.91952 56.18132,270.02251 c 15.025582,-27.91083 32.636359,-55.29295 53.46232,-79.26356 2.21742,-2.57085 4.3445,-5.19315 6.46131,-7.84693 5.02456,-6.1669 10.48579,-11.90418 15.95134,-17.67736 1.7656,-1.87675 3.51275,-3.76903 5.25538,-5.66708 8.26038,-8.97071 16.86302,-17.45252 25.91933,-25.61922 0.81862,-0.74 0.81862,-0.74 1.65375,-1.49493 9.69312,-8.69526 20.10583,-16.41119 30.59349,-24.11318 0.7293,-0.53964 1.45859,-1.07928 2.20997,-1.63525 10.99046,-8.128275 22.2668,-15.736345 33.8311,-23.024435 0.91719,-0.57861 0.91719,-0.57861 1.8529,-1.1689 48.45422,-30.331522 102.604,-51.724025 158.43557,-63.7338 19.13552,-4.049207 38.40698,-6.980368 57.85473,-9.0763137 1.0134,-0.112481 2.0268,-0.22496 3.0709,-0.340849 35.25828,-3.729508 71.76317,-2.854136 106.94917,1.2892967 z m -109.0716,61.649172 c 3.09012,2.060074 5.98495,2.888614 9.51784,3.823434 1.37624,0.37587 2.75228,0.75248 4.12815,1.12974 0.72306,0.19698 1.44612,0.39399 2.19109,0.59693 30.25716,8.29454 59.90532,19.56847 85.79931,37.609405 7.9771,5.68969 15.47924,11.76479 22.6104,18.48968 1.08953,1.00503 2.18007,2.00897 3.2714,3.01205 22.84517,21.0565 22.84517,21.0565 31.73968,33.36614 1.78738,2.266 3.37805,3.7773 5.77221,5.35355 1.87794,-0.62599 3.75586,-1.25195 5.6907,-1.8969 0.47636,-0.49623 0.95271,-0.99245 1.4435,-1.50372 11.31459,-11.7221 22.00572,-21.96146 36.43517,-29.67653 6.77689,-3.24312 13.6114,-5.1363 20.92515,-6.75769 0.74671,-0.16605 1.49342,-0.3321 2.26274,-0.50317 9.52355,-1.7103 20.51125,-1.3087 30.0364,0.20307 11.98312,2.3111 23.25786,6.6776 33.79589,12.80775 6.90325,4.18975 12.65717,9.27074 18.31691,14.99734 1.05083,1.03617 1.05083,1.03617 2.12289,2.09327 6.37267,6.66965 10.79292,14.63604 14.51572,23.0147 2.93203,7.35159 5.14462,14.49504 5.49433,22.43675 0.17009,10.16944 -0.18806,19.64688 -3.46313,29.34634 -0.21427,0.60397 -0.42852,1.20795 -0.64929,1.8302 -0.22892,0.64799 -0.45786,1.29597 -0.69373,1.96359 -2.09442,5.71159 -4.41648,11.07894 -7.97197,16.03841 -2.06162,2.37823 -4.18807,4.53401 -6.50948,6.65768 -0.62965,0.58808 -1.25928,1.17615 -1.90801,1.78205 -6.39081,5.4413 -14.08062,9.25307 -21.80321,12.44467 -7.23396,2.52348 -14.44146,3.2638 -22.05536,3.17926 -4.48957,-0.15804 -8.58311,-0.66966 -12.81124,-2.19745 -3.91361,-1.80997 -7.36044,-3.88685 -10.65892,-6.67251 -2.92976,-2.97542 -4.95763,-6.14725 -6.84663,-9.85866 -2.17341,-5.17739 -3.0801,-10.2859 -3.46776,-15.86799 -0.22334,-4.73244 -0.32899,-9.34906 0.94474,-13.94518 1.77014,-4.37418 4.11717,-8.44314 6.52429,-12.49284 3.75584,-2.8169 3.75584,-2.8169 7.58759,-5.69069 3.28637,-0.93898 3.28637,-0.93898 6.63915,-1.8969 -0.39979,0.77757 -0.79958,1.55515 -1.21149,2.35629 -0.51962,1.02211 -1.03923,2.04422 -1.57458,3.09728 -0.77576,1.51848 -0.77576,1.51848 -1.56717,3.06765 -1.10677,2.36681 -1.9055,4.10515 -2.28591,6.65396 -0.0655,2.46004 -0.0895,4.89219 -0.0593,7.35048 0.007,0.99215 0.007,0.99215 0.013,2.00434 0.0241,3.51612 0.37156,5.85777 1.58754,9.13992 1.94477,4.91093 4.56576,8.77358 7.94324,12.80407 3.1025,1.99625 3.1025,1.99625 6.49466,3.39737 4.13709,0.80339 8.28588,0.73421 12.47433,0.39642 2.94816,-0.72858 5.73254,-1.68241 8.53602,-2.84533 7.00515,-5.52083 13.33025,-10.85199 18.35769,-18.32434 4.02603,-6.56025 6.97814,-12.88446 8.66942,-20.4324 0.98405,-6.12558 0.95466,-12.01054 0.0667,-18.14648 -1.68171,-7.86542 -5.00244,-14.9302 -9.07324,-21.81804 -3.97228,-5.886 -8.46045,-10.61998 -14.04889,-14.99734 -6.92839,-4.92119 -14.17315,-8.8154 -22.28856,-11.38138 -7.75985,-2.08733 -15.40255,-2.66667 -23.41481,-2.07476 -9.52106,1.52221 -18.26721,4.54721 -26.72701,9.18071 -8.89932,5.2088 -16.19426,12.34136 -22.75676,20.23187 -6.02367,7.5313 -11.02191,15.87357 -15.01077,24.64902 -1.90044,6.40194 -1.35138,13.46178 -1.12256,20.06886 0.61519,9.51738 2.4585,19.39774 5.92408,28.30202 0.89362,1.91368 1.82901,3.80795 2.78609,5.69069 0.36112,0.73358 0.72225,1.46712 1.09433,2.22294 6.49049,13.15222 13.2831,25.24242 23.97287,35.50384 8.11399,7.01652 17.08947,13.31412 27.09747,17.28326 7.54609,2.49324 14.89204,3.3071 22.82205,3.1121 6.75641,-0.48261 13.26437,-1.57709 19.85814,-3.1121 0.69399,-0.15818 1.38797,-0.31636 2.10299,-0.47932 13.30375,-3.19324 24.8027,-9.45911 36.25178,-16.84238 5.17129,-3.50769 9.52909,-7.52239 13.80993,-12.08022 1.03552,-1.03427 2.07299,-2.06659 3.11208,-3.09729 9.11224,-9.21144 15.49053,-19.17714 20.89551,-30.92832 4.16388,-10.17834 6.91495,-21.52868 7.37851,-32.54317 0.0391,-2.15487 0.0423,-4.30661 0.0313,-6.46178 0.004,-0.71644 0.008,-1.43288 0.0111,-2.17105 -0.009,-4.7296 -0.40774,-9.27048 -1.07812,-13.95256 -1.87793,-2.19092 -3.75585,-4.38185 -5.69069,-6.63916 -0.62598,0 -1.25197,0 -1.8969,0 0,-0.62597 0,-1.25194 0,-1.89689 -0.40468,-0.34723 -0.80937,-0.69445 -1.22632,-1.0522 -3.09653,-2.68152 -6.16265,-5.38546 -9.14362,-8.19518 -6.77501,-6.37925 -13.77335,-12.2593 -21.15903,-17.91724 -1.65579,-1.2804 -3.29188,-2.58218 -4.92333,-3.89337 -18.15185,-14.56179 -37.92196,-27.13934 -58.39259,-38.17878 -0.79148,-0.43004 -1.58296,-0.8601 -2.39844,-1.30319 -43.44428,-23.508445 -91.01926,-39.544575 -139.86886,-47.067705 -5.44484,-0.780347 -10.90066,-1.469961 -16.36075,-2.134017 -0.64454,-0.07884 -1.28908,-0.157592 -1.95313,-0.238783 -16.6434,-2.010169 -33.05351,-2.560129 -49.79661,-2.547276 -1.02728,-3.73e-4 -2.05454,-7.45e-4 -3.11296,-0.0011 -17.4628,0.0076 -34.77872,0.394343 -52.0749,3.024311 z m -84.41195,29.401919 c -1.2863,0.23188 -2.57267,0.4634 -3.85909,0.69467 -8.7997,1.59296 -17.5679,3.31536 -26.32408,5.13173 -3.4191,0.70791 -6.847,1.36046 -10.27779,2.00943 -17.82527,3.62424 -32.64415,12.4614 -48.05598,21.74392 -4.3854,2.69301 -8.68731,5.50099 -12.96707,8.35821 -0.74106,0.49103 -1.48211,0.98206 -2.24563,1.48797 -14.93404,9.92687 -29.19703,20.60523 -42.75336,32.34451 -1.43261,1.2239 -2.89287,2.41522 -4.3537,3.60531 -8.01982,6.57215 -15.34559,13.80357 -22.67015,21.12892 -0.51637,0.5155 -1.03272,1.03101 -1.56472,1.56211 -5.70888,5.70996 -11.30221,11.47125 -16.51508,17.64398 -0.86534,1.00186 -1.73104,2.00343 -2.59712,3.00466 -8.80813,10.33186 -16.99348,21.05641 -24.90789,32.08794 0.62598,0.31299 1.25193,0.62598 1.89689,0.94844 1.03893,-0.33873 2.07782,-0.67748 3.14821,-1.02647 20.60011,-6.69988 41.11708,-13.29695 62.29476,-17.9425 0.75573,-0.17804 1.51145,-0.35608 2.29008,-0.53951 18.15705,-4.20796 38.69176,-3.66742 57.15099,-1.7501 21.23637,2.83164 43.75261,9.79874 62.90882,19.36169 10.68355,5.61807 19.15294,14.1787 27.50502,22.76277 1.87792,0 3.75584,0 5.69069,0 0.88394,-0.59663 1.76789,-1.19327 2.67862,-1.80797 8.84819,-5.94946 17.82355,-11.60959 26.953,-17.12025 5.13741,-3.12312 10.09627,-6.32524 14.94546,-9.88091 13.07764,-9.13383 28.31699,-15.28208 43.62865,-19.56175 11.73086,-3.05686 24.10444,-3.53979 36.14851,-2.55267 11.93364,1.13977 23.15585,3.99047 34.16637,8.81761 8.7771,4.2748 16.39007,9.99218 23.20598,16.95629 6.39589,6.94848 11.29806,15.31769 15.00984,23.97891 3.83096,9.749 6.57565,21.00629 7.12449,31.48406 0.0275,1.42676 0.0275,1.42676 0.0556,2.88239 0.023,0.69353 0.0462,1.38705 0.0699,2.1016 0.43602,13.92562 -0.51604,26.81016 -4.76423,40.1229 -3.51421,10.32289 -8.38363,19.60649 -15.1995,28.1427 -4.7769,5.74329 -9.85752,10.89316 -16.14725,14.99319 -6.62152,3.82011 -13.47467,7.30221 -20.95478,9.07326 -6.64778,0.9918 -13.23079,0.89943 -19.88779,0.0333 -8.43671,-1.76528 -16.29804,-5.63338 -23.65195,-10.05502 -7.59853,-5.21506 -14.27182,-11.69114 -19.91742,-18.96899 -3.43424,-5.32942 -6.47581,-10.76234 -8.00252,-16.95352 -0.58414,-3.57605 -0.85157,-6.9257 -0.53352,-10.55148 1.10174,-5.4624 3.00881,-10.03979 5.86852,-14.81952 2.63476,-4.16687 5.57022,-6.65054 9.43634,-9.74012 4.80849,-3.53587 9.90742,-5.86376 15.46045,-7.98401 4.62447,-0.89244 9.11801,-0.80485 13.81178,-0.65208 1.56494,0.62599 3.12989,1.25197 4.74225,1.8969 0.313,0.62598 0.62597,1.25197 0.94844,1.89692 -1.05388,0.15037 -2.10778,0.30076 -3.19361,0.45569 -9.62919,1.45374 -9.62919,1.45374 -18.67999,4.93861 -1.2574,0.70923 -2.50844,1.43112 -3.73452,2.19328 -3.05841,3.63249 -5.79546,7.19878 -7.46902,11.67778 -1.46902,4.91389 -1.32345,9.79767 -1.06701,14.87878 2.94575,5.36276 5.90145,10.36065 10.4033,14.55648 7.15521,5.82049 15.06824,9.88621 23.74085,12.94854 5.86761,1.9127 11.63744,2.23217 17.79082,2.15254 4.42983,-0.36827 8.41732,-1.53012 12.55955,-3.10098 5.56994,-3.91082 10.83765,-7.99929 15.17518,-13.2783 5.16267,-7.72516 9.02765,-15.62564 11.38138,-24.65966 1.60126,-7.3391 1.44051,-15.0368 0.51127,-22.46267 -1.51472,-8.56267 -4.06729,-16.30183 -8.09886,-24.01131 -5.31837,-9.03278 -11.8793,-16.97847 -19.91742,-23.71122 -6.83899,-5.30673 -14.24176,-9.45055 -22.42193,-12.33355 -8.01907,-2.37775 -16.04547,-4.12227 -24.43621,-4.00382 -4.22174,0.36661 -8.03024,1.6443 -12.00497,3.05909 -1.29118,0.44769 -1.29118,0.44769 -2.60845,0.90442 -15.62297,5.55552 -29.76457,12.96769 -42.73926,23.34029 -1.63329,1.38771 -3.25469,2.78963 -4.86079,4.20874 -0.65899,0.57951 -1.31797,1.15903 -1.99693,1.7561 -6.69869,6.28422 -12.27795,13.92165 -16.6312,21.99586 -3.63336,8.1094 -5.54589,16.78052 -6.26865,25.62295 -0.34565,15.92075 3.57669,30.74625 8.53742,45.72514 5.07331,14.8461 11.91219,27.57253 21.67401,39.8418 2.56188,3.16205 5.2065,6.23027 7.96363,9.22236 11.25135,3.98984 22.40981,7.26366 34.14416,9.4845 1.63401,0.32276 1.63401,0.32276 3.30105,0.65205 15.86219,2.62849 33.27721,2.59197 49.11093,-0.2003 15.20055,-3.02121 29.88199,-7.93888 43.38135,-15.62694 4.04051,-2.54136 7.73205,-5.46442 11.38138,-8.53603 0.66265,-0.50983 1.32532,-1.01966 2.00804,-1.54495 7.43755,-5.95898 13.27802,-13.95722 18.34285,-21.97362 8.49453,-14.07616 13.00023,-28.90373 16.15606,-44.95662 4.32382,-23.21713 3.70021,-48.40897 0.0495,-71.69055 -4.38523,-25.94887 -11.47382,-51.12937 -22.32975,-75.13213 -0.30764,-0.68055 -0.61528,-1.36109 -0.93225,-2.06225 -4.55858,-9.82775 -10.72162,-17.52045 -18.03674,-25.44277 -1.069,-1.18242 -2.13723,-2.36551 -3.20472,-3.54928 -5.29081,-5.8264 -10.63343,-11.35581 -16.71269,-16.36814 -0.91329,-0.79592 -1.82658,-1.59184 -2.76756,-2.41188 -14.9373,-12.99293 -31.53356,-23.2641 -49.39714,-31.73229 -1.50931,-0.72989 -1.50931,-0.72989 -3.04909,-1.47454 -17.89332,-8.18358 -37.24866,-13.0392 -56.70317,-15.597535 -0.69971,-0.0964 -1.39942,-0.19287 -2.12035,-0.29223 -21.23952,-2.54738 -44.23625,-1.68859 -65.21952,2.189125 z m 477.06973,127.09214 c -0.0901,0.60511 -0.18018,1.21024 -0.273,1.83369 -2.61629,17.2924 -5.61257,33.26201 -13.9315,48.77494 -0.63619,1.15292 -1.27567,2.30405 -1.91912,3.45294 -0.51594,0.9243 -1.03189,1.84859 -1.56346,2.80089 -7.04853,11.75904 -17.03925,22.77731 -27.51614,31.56187 -10.81884,8.45997 -23.16557,15.66074 -36.22951,20.00171 -0.67017,0.21304 -1.3403,0.42608 -2.03075,0.64557 -1.0804,0.34523 -1.0804,0.34523 -2.18264,0.69744 -17.16608,5.18777 -34.99,5.06352 -52.74925,4.16579 -15.55259,-0.95272 -30.3515,-5.17356 -45.12621,-9.89699 -2.66897,-0.73843 -5.32873,-1.19107 -8.06507,-1.60538 -0.30504,0.93995 -0.61009,1.87991 -0.92435,2.84835 -9.35204,28.74777 -19.02034,57.77468 -37.01359,82.51204 -3.23421,4.02807 -6.78654,7.72459 -10.43294,11.38138 -0.50394,0.52267 -1.00789,1.04533 -1.52712,1.58385 -3.96017,4.06493 -8.12904,7.66208 -12.64033,11.10167 -0.69582,0.5306 -1.39163,1.06122 -2.10854,1.6079 -6.85125,5.11606 -14.04529,9.34699 -21.66197,13.21159 -0.91329,0.46461 -1.82657,0.92919 -2.76754,1.40785 -9.83254,4.70568 -20.15694,7.85566 -30.78383,10.15139 -0.66876,0.14677 -1.33753,0.29358 -2.02657,0.4448 -15.79693,3.22498 -31.46236,3.47806 -47.52988,3.40826 -1.11274,-0.002 -2.22548,-0.004 -3.37195,-0.005 -20.22053,-0.0358 -40.35707,-0.76888 -60.52979,-2.12891 -1.56493,0.62596 -3.12987,1.25195 -4.74223,1.8969 -2.20162,5.41461 -3.47784,10.49646 -4.44587,16.24218 -3.0495,16.40581 -9.39108,31.75816 -17.36846,46.35544 -0.46458,0.85948 -0.9292,1.71897 -1.40785,2.60452 -6.89136,12.0986 -16.39655,23.5241 -26.71218,32.86598 -2.58867,2.16354 -5.23304,4.22259 -7.92103,6.26123 -0.91573,0.72624 -1.83145,1.45247 -2.77495,2.2007 -15.05697,11.62422 -32.60663,19.68136 -50.63504,25.4604 -8.96839,2.74898 -17.94028,5.02572 -27.20814,6.48307 -0.67642,0.10835 -1.35283,0.21671 -2.04973,0.32835 -19.37481,2.95747 -39.68632,2.68056 -58.92517,-1.09896 -16.43984,-3.47664 -31.83174,-9.44466 -46.19983,-18.19836 -3.35694,-2.34825 -6.43696,-4.8567 -9.48448,-7.58761 -0.89862,-0.69933 -1.79724,-1.39867 -2.72309,-2.11918 -3.53784,-2.94218 -6.16411,-6.47261 -8.89542,-10.15137 -0.53449,-0.7134 -1.069,-1.4268 -1.6197,-2.16179 -1.08605,-1.454 -2.16876,-2.91044 -3.24803,-4.36946 -1.3747,-1.84938 -2.77058,-3.67972 -4.17585,-5.50592 -6.49304,-8.56625 -11.87145,-17.80508 -15.10526,-28.11027 -3.36339,-12.03122 -4.24461,-23.74897 -4.24325,-36.20152 -0.002,-2.11421 -0.0194,-4.22795 -0.0373,-6.34207 -0.0507,-12.61941 1.27177,-24.61061 5.33316,-36.61346 5.82685,-16.04441 14.39392,-30.40945 25.22281,-43.56194 11.68346,-13.63829 24.07432,-23.73525 39.60677,-32.65735 13.04734,-7.28561 26.24032,-11.67318 40.84096,-14.69471 9.87509,-1.2949 20.54961,-1.30793 30.34132,0.57635 10.08532,2.3089 19.06099,6.77074 27.7808,12.25365 7.44658,5.16657 14.06714,11.18142 19.45061,18.49474 7.3881,10.4793 13.13829,21.83409 16.64972,34.19974 3.07953,12.76001 4.79313,25.46808 3.43026,38.58398 -1.31386,10.44831 -4.18839,19.80498 -8.78751,29.3042 -3.45846,6.44534 -7.70491,11.60188 -12.97818,16.60897 -3.80951,3.24573 -7.70414,5.72264 -12.16313,7.97289 -0.80692,0.4267 -1.61384,0.85339 -2.4452,1.293 -7.8876,3.90921 -15.97654,5.59664 -24.66339,6.7429 -6.30675,0.60494 -12.28915,0.64668 -18.52067,-0.57797 -4.81808,-1.43891 -8.95791,-3.81138 -13.17456,-6.50947 -0.86072,-0.54774 -1.72142,-1.09545 -2.60824,-1.6598 -4.2325,-4.2325 -7.41245,-9.06111 -10.21804,-14.33415 -1.85195,-4.04111 -3.16019,-7.71574 -3.7975,-12.12978 -0.23464,-2.9604 -0.39561,-5.89705 -0.44829,-8.86577 1.40844,-4.22534 1.40844,-4.22534 2.84535,-8.53604 3.21127,-2.75251 5.43924,-4.0726 9.48448,-5.69069 0,7.8247 0,15.64941 0,23.71121 1.87792,3.28638 1.87792,3.28638 3.79379,6.63916 4.13652,3.70709 4.13652,3.70709 7.18886,4.7223 5.03472,1.50288 9.98133,1.32115 15.20482,1.31987 1.88547,0.004 3.77081,0.0392 5.65595,0.0746 6.10241,0.0183 11.42985,-0.33978 17.25363,-2.24885 4.01296,-1.49194 7.32627,-3.01478 10.65522,-5.7648 5.79602,-5.19409 10.71498,-10.57095 14.7306,-17.25731 2.66475,-5.08856 4.48001,-10.32468 5.89816,-15.87911 0.5552,-6.8012 0.66394,-13.28081 -0.8299,-19.9767 -2.06946,-7.3242 -5.1392,-13.75464 -9.51413,-19.98412 -5.64474,-7.16592 -12.0246,-13.12959 -19.76921,-17.95384 -8.65686,-5.02601 -17.96509,-8.9171 -27.82365,-10.7886 -9.78013,-1.50267 -20.06979,-1.60916 -29.83537,0 -3.06178,0.85197 -5.83129,1.90354 -8.7324,3.20102 -0.9032,0.39704 -0.9032,0.39704 -1.82466,0.8021 -8.50195,3.79566 -15.87766,8.11265 -22.835,14.37307 -0.80815,0.70667 -1.61629,1.41335 -2.44894,2.14143 -2.37527,2.10106 -4.71194,4.23668 -7.03556,6.39461 -0.5734,0.52206 -1.14681,1.04411 -1.73758,1.58199 -9.32973,8.84903 -17.13805,20.15322 -22.92209,31.61373 -3.95224,8.68138 -7.02191,17.67577 -7.79575,27.2297 -0.43022,10.23555 -0.42714,20.26535 2.68302,30.09958 3.72127,9.51219 8.0253,18.27286 14.74542,26.05269 0.57708,0.65287 1.15414,1.30575 1.7487,1.97841 0.42058,0.55507 0.84117,1.11013 1.27449,1.68201 5.13573,6.67022 12.39991,11.89413 19.38763,16.50801 12.00565,7.52704 25.28557,13.27333 39.12071,16.38806 15.11569,3.16304 30.7801,3.63934 46.09217,1.62946 13.30455,-2.03767 25.66708,-5.99948 37.53342,-12.36664 12.50631,-6.9539 22.64229,-15.9435 32.05461,-26.68624 3.86898,-4.80648 7.22522,-9.91091 10.43292,-15.17519 0.35015,-0.5682 0.70025,-1.13641 1.061,-1.72183 13.49003,-22.10341 22.73209,-47.55775 27.91117,-72.8981 2.6512,-19.44984 2.27915,-41.71091 -1.60954,-60.94202 -1.32905,-6.08508 -2.91136,-12.09152 -4.59984,-18.08674 -0.27846,-1.0403 -0.55691,-2.08058 -0.84379,-3.15241 -4.45635,-16.58241 -10.53732,-32.70461 -20.0221,-47.11538 -2.10145,-2.94768 -4.32432,-5.75409 -6.63913,-8.53604 -0.47071,-0.60886 -0.94142,-1.21773 -1.42638,-1.84504 -6.35006,-7.86198 -14.83341,-14.10226 -23.4359,-19.31791 -14.18539,-8.22275 -29.90912,-13.12737 -45.94744,-16.21811 -20.86897,-3.56195 -44.11382,-2.79356 -64.91385,0.8204 -24.44822,4.61954 -47.77613,11.93902 -69.53038,24.14931 -15.43006,9.50545 -28.0113,22.23487 -39.44583,36.12257 -12.181481,31.78301 -21.650011,63.7675 -26.793681,97.51239 -0.143427,0.93621 -0.286854,1.87242 -0.434636,2.837 -2.714674,19.01348 -3.478884,37.96658 -3.418443,57.15238 0.0017,1.1442 0.0034,2.2884 0.0052,3.46727 0.04403,17.33478 0.541073,34.31844 3.136493,51.48348 0.182932,1.2301 0.365873,2.46021 0.554346,3.72757 1.83096,12.16104 3.86938,24.21014 7.03324,36.10728 7.2749,6.10163 14.932519,11.37814 22.881341,16.53859 0.60781,0.39648 1.21562,0.79296 1.84186,1.20145 8.95932,5.83935 17.99529,11.38616 27.44149,16.40412 1.06735,0.61129 2.13469,1.2226 3.23436,1.85244 18.25041,10.37663 38.68241,17.83894 59.37391,21.40215 16.34073,2.53975 32.67072,3.50459 49.19012,3.4798 1.15574,-9.5e-4 1.15574,-9.5e-4 2.33481,-0.003 38.51231,-0.0958 75.90959,-6.86369 112.17696,-19.85081 49.0711,-18.16926 93.10285,-47.07623 134.01377,-79.29873 1.87662,-1.47704 3.75749,-2.94841 5.64023,-4.41762 6.76024,-5.28124 13.43269,-10.65813 20.0545,-16.11251 1.69922,-1.38326 3.39853,-2.76642 5.09791,-4.14948 5.94899,-4.86887 11.81323,-9.83447 17.66485,-14.81949 0.55721,-0.47393 1.1144,-0.94785 1.68852,-1.43611 5.5095,-4.68859 11.0024,-9.3791 16.33201,-14.27258 4.6524,-4.2198 9.55667,-8.06345 14.51572,-11.91118 3.5135,-2.72664 6.97741,-5.51226 10.44035,-8.30263 5.6665,-4.55254 11.41235,-8.99199 17.19643,-13.39383 5.02167,-3.82304 10.01358,-7.68247 14.99154,-11.56224 8.09406,-6.30616 16.21371,-12.5776 24.37068,-18.80226 0.65466,-0.4999 1.30927,-0.99979 1.98374,-1.51482 1.37438,-1.04876 2.74968,-2.09628 4.12584,-3.14266 3.3667,-2.56606 6.70847,-5.15304 9.99553,-7.82055 9.33092,-7.52295 19.09567,-14.29334 29.05737,-20.94366 0.97644,-0.65426 0.97644,-0.65426 1.97262,-1.3217 29.23633,-19.54606 59.88702,-35.74869 94.22269,-44.24507 30.90615,-7.24581 62.12738,-7.4717 93.70024,-7.37439 3.56834,0.01 7.1367,0.0141 10.70508,0.0188 6.9343,0.01 13.86859,0.0261 20.80288,0.0463 -0.43752,-1.33923 -0.87741,-2.6777 -1.31823,-4.01584 -0.24472,-0.74546 -0.48941,-1.49088 -0.74153,-2.25893 -1.23302,-3.54913 -2.73788,-6.95994 -4.28299,-10.38235 -0.49631,-1.10597 -0.49631,-1.10597 -1.00264,-2.23428 -3.04606,-6.72881 -6.28114,-13.34943 -9.66185,-19.91578 -1.05605,-2.0595 -2.09402,-4.12756 -3.13248,-6.19597 -12.28251,-24.18256 -27.8639,-47.09525 -45.30325,-67.86225 -0.31299,0 -0.62598,0 -0.94845,0 z m 20.10962,156.62742 c -40.58056,1.59255 -81.22972,6.68004 -119.28179,21.62168 -0.69811,0.27249 -1.39622,0.54497 -2.11549,0.8257 -12.6675,5.19514 -24.06902,12.3484 -35.28896,20.09944 -1.28546,0.88045 -2.57128,1.76035 -3.85746,2.63972 -3.18824,2.18299 -6.37009,4.37507 -9.54905,6.57153 -1.65379,1.14235 -3.3089,2.28276 -4.96459,3.42238 -21.29248,14.66838 -42.24224,29.77128 -62.51055,45.82981 -1.65402,1.30513 -3.31523,2.60054 -4.97889,3.89337 -7.5858,5.90217 -14.98,11.98952 -22.26263,18.26134 -0.58379,0.50188 -1.16758,1.00376 -1.76906,1.52085 -5.86531,5.0469 -11.71284,10.10702 -17.43702,15.31411 -3.14352,2.85257 -6.36085,5.57148 -9.66231,8.23965 -3.60731,2.9173 -7.07858,5.92784 -10.49222,9.06955 -4.23943,3.90172 -8.62183,7.55995 -13.10415,11.17762 -2.49506,2.05923 -4.89686,4.18953 -7.2875,6.36867 -3.95518,3.59618 -8.02191,7.0089 -12.17793,10.36996 -2.24074,1.81213 -4.46158,3.64665 -6.6762,5.49064 -8.64236,7.18782 -17.41824,14.15255 -26.39726,20.91496 -2.33825,1.76266 -4.67022,3.5335 -7.00221,5.30447 -8.3482,6.32245 -16.70646,12.48443 -25.5192,18.14648 -1.19134,0.78909 -2.38179,1.57956 -3.57151,2.37111 -9.82731,6.50119 -19.9211,12.4509 -30.21328,18.18493 -1.93331,1.07818 -3.8589,2.16868 -5.78331,3.26262 -27.77345,15.38369 -58.01857,25.47902 -88.47249,34.0367 -0.93209,0.26898 -1.86416,0.53796 -2.8245,0.81508 -14.70508,4.23211 -29.41324,6.83135 -44.59793,8.66943 -0.889,0.11248 -1.77799,0.22495 -2.69391,0.34083 -37.31073,4.54301 -77.28248,2.90251 -113.91343,-5.37947 -21.23106,-5.06507 -40.98852,-14.34435 -59.80414,-25.31174 -0.62597,0 -1.25194,0 -1.8969,0 8.4097,27.50672 26.81028,53.85751 43.62865,76.82436 0.4681,0.644 0.93622,1.28802 1.41851,1.95154 6.70694,9.20595 13.81441,17.9574 21.34425,26.50191 22.46508,10.36851 49.15802,14.1792 73.63075,16.44227 20.75009,1.63004 41.6182,0.79619 62.01596,-3.44556 3.43311,-0.66439 6.8401,-0.94915 10.32458,-1.20222 33.19974,-2.49425 66.63152,-17.25462 96.8316,-30.76346 11.19257,-5.11053 22.20762,-10.59037 33.1957,-16.12363 1.19237,-0.59818 2.38473,-1.19637 3.57709,-1.79455 14.35863,-7.22042 28.3609,-14.94577 42.15733,-23.1879 2.5298,-1.51042 5.06625,-3.00889 7.60472,-4.50467 25.81133,-15.26779 50.77663,-32.10733 74.70146,-50.18257 0.714,-0.5381 1.42802,-1.0762 2.16364,-1.63061 8.27334,-6.24572 16.4135,-12.6164 24.39291,-19.23526 1.75855,-1.42273 3.51712,-2.84541 5.27577,-4.26803 4.26081,-3.48391 8.37211,-7.10178 12.44097,-10.80713 1.91763,-1.74005 3.85744,-3.44585 5.81666,-5.13865 7.62262,-6.65638 15.02407,-13.52415 22.11071,-20.74733 4.20286,-4.27275 8.60609,-8.0945 13.30423,-11.82596 3.06964,-2.52646 5.967,-5.1951 8.86576,-7.91362 4.55737,-4.26801 9.24894,-8.28099 14.11929,-12.19275 2.47712,-2.0328 4.85317,-4.14315 7.22081,-6.302 4.90878,-4.46183 10.00873,-8.64554 15.17518,-12.80406 1.07472,-0.87769 2.14914,-1.75575 3.22325,-2.63417 14.05785,-11.44117 28.74442,-22.03206 44.19919,-31.50999 0.64402,-0.39689 1.28802,-0.79378 1.95154,-1.2027 26.72833,-16.24103 59.78485,-27.5252 90.39627,-33.99734 15.02793,-2.95636 29.73322,-4.7913 45.06612,-4.72744 1.22865,9.5e-4 2.45727,0.003 3.72315,0.004 3.23374,0.004 6.46746,0.0129 9.70119,0.0234 3.31287,0.01 6.62573,0.014 9.93862,0.0188 6.47614,0.0101 12.95217,0.0263 19.42841,0.0463 0.0816,-8.34936 -0.40226,-16.32607 -1.54139,-24.60039 -0.1646,-1.21763 -0.32958,-2.43527 -0.4995,-3.68982 -2.82082,-22.40631 -2.82082,-22.40631 -9.34052,-43.79189 -8.18954,-1.73452 -16.31188,-2.46614 -24.65968,-2.9639 -0.65237,-0.0396 -1.30478,-0.0791 -1.97693,-0.11983 -11.65313,-0.6997 -23.15254,-1.00878 -34.82038,-0.57669 z m -26.74875,123.16497 c -0.93638,0.17253 -1.87272,0.34509 -2.83748,0.52285 -19.48889,3.65845 -36.75654,10.91049 -53.8115,20.94322 -5.61399,3.37828 -11.03121,7.00173 -16.38158,10.78119 -0.6923,0.48706 -1.3846,0.97411 -2.09788,1.47593 -8.73613,6.16806 -17.22305,12.50348 -25.40714,19.38994 -1.65866,1.34501 -3.31849,2.68859 -4.97935,4.03092 -9.4881,7.77159 -18.72823,15.8313 -27.68238,24.21253 -2.63827,2.46638 -5.314,4.87623 -8.04006,7.24557 -3.72364,3.24334 -7.33855,6.5881 -10.92939,9.97723 -0.64247,0.60466 -1.28495,1.20932 -1.9469,1.8323 -1.35937,1.27947 -2.71828,2.55944 -4.07675,3.8399 -2.12984,2.00519 -4.2638,4.00589 -6.39879,6.00559 -1.4116,1.32383 -2.82316,2.64771 -4.23468,3.97164 -0.64608,0.6045 -1.29215,1.209 -1.9578,1.83183 -3.19786,3.00408 -6.34169,6.04474 -9.42359,9.16794 -3.04236,3.06388 -6.20942,5.91794 -9.47985,8.73473 -3.29594,2.88574 -6.43831,5.93291 -9.60768,8.95606 -16.39829,15.50664 -33.83058,29.40765 -52.56111,42.00591 -3.16062,2.12858 -6.26328,4.3189 -9.33883,6.56805 -7.46156,5.45599 -15.26714,10.25727 -23.19925,14.99572 -1.84646,1.10561 -3.68575,2.22186 -5.52212,3.34413 -15.5201,9.45673 -31.31541,18.52308 -47.73367,26.33058 -0.90427,0.43446 -1.80854,0.86896 -2.7402,1.3166 -47.1779,22.60411 -96.40078,39.17294 -147.11469,51.79651 -1.19739,0.29862 -2.39478,0.59725 -3.62847,0.90492 -16.66673,4.09004 -33.38568,6.70634 -50.43313,8.57959 -0.89861,0.099 -1.79723,0.19802 -2.72306,0.30003 -6.2434,0.68361 -12.48901,1.34242 -18.7372,1.98074 -2.09679,0.21461 -4.1933,0.43194 -6.28948,0.65234 -13.87991,1.44776 -27.53251,2.08973 -41.487,1.80912 0,0.62598 0,1.25196 0,1.89689 22.4031,17.32695 45.17926,33.09292 70.18521,46.47399 0.86376,0.46369 1.72756,0.92735 2.6175,1.40507 5.55154,2.96941 11.13298,5.87027 16.74974,8.71434 2.06567,1.06529 4.08734,2.1777 6.1075,3.3256 6.77184,3.51385 13.27699,5.0089 20.81532,6.0193 6.14236,0.77836 12.30012,1.3988 18.46239,1.99481 2.8621,0.28753 5.70615,0.61665 8.55597,1.00356 24.61286,3.32578 49.56216,0.59064 74.05587,-2.51329 5.16649,-0.64971 10.27175,-1.15156 15.47251,-1.39535 4.23191,-0.2581 7.95118,-0.97557 12.0075,-2.20069 4.31418,-1.27519 8.62691,-2.5026 12.98213,-3.62919 18.65258,-4.82822 35.28081,-10.75947 52.1311,-20.31175 0.99888,-0.55857 1.99775,-1.11714 3.02689,-1.69267 20.34496,-11.42393 39.68326,-24.20573 57.67383,-39.09062 1.42862,-1.18105 1.42862,-1.18105 2.88612,-2.38595 11.22392,-9.35044 21.74168,-19.31555 32.08794,-29.6242 0.84604,-0.84161 1.69209,-1.68323 2.56377,-2.55035 3.6162,-3.625 7.16962,-7.25491 10.50334,-11.14288 3.24602,-3.77845 6.7939,-7.13321 10.46626,-10.49221 5.79225,-5.3552 11.42296,-10.82548 16.93871,-16.46448 1.95743,-1.90756 3.88721,-3.54736 6.12047,-5.11273 0,-0.62598 0,-1.25196 0,-1.8969 0.80738,-0.3426 0.80738,-0.3426 1.63106,-0.69212 2.59902,-1.44782 4.33504,-3.17945 6.41593,-5.30608 0.80936,-0.81976 1.61873,-1.63952 2.45263,-2.48411 0.8387,-0.8589 1.67742,-1.71776 2.54153,-2.60268 5.08979,-5.19174 10.16965,-10.28909 15.69479,-15.01889 2.06542,-1.79255 3.97874,-3.70688 5.88244,-5.66914 3.80154,-3.84022 7.75511,-7.39245 11.8556,-10.90717 1.05799,-0.9277 2.11503,-1.85649 3.17137,-2.78606 27.97088,-24.55377 58.88554,-45.28347 93.55189,-59.18544 8.06181,-3.1215 16.24272,-5.89076 24.44106,-8.62866 0.72937,-0.24412 1.45872,-0.48824 2.21017,-0.73976 19.00209,-6.33108 37.2804,-9.32988 57.24573,-10.34522 1.53445,-0.0822 3.0689,-0.16499 4.60332,-0.24824 3.70149,-0.19976 7.40329,-0.39269 11.10536,-0.58166 3.25367,-9.91274 5.9955,-19.77179 8.1211,-29.9947 0.20938,-0.99162 0.20938,-0.99162 0.42285,-2.00327 4.59189,-21.87268 7.90472,-44.2601 7.57969,-66.64071 -33.70356,-4.17925 -66.96905,-6.48936 -100.53558,0 z m 0.94844,154.30076 c -46.11702,19.5599 -87.71605,51.17216 -124.24678,85.12328 -0.48927,0.45916 -0.97854,0.91834 -1.48264,1.39141 -2.34633,2.19731 -4.71938,4.32746 -7.209,6.35919 -2.2225,1.87353 -4.04513,3.65829 -5.89075,5.88336 -2.82871,3.3209 -5.81353,6.39593 -8.951,9.42519 -1.79993,1.85138 -3.49486,3.7418 -5.18683,5.69069 -3.44843,3.96938 -7.02289,7.80343 -10.64041,11.61851 -5.62041,5.93163 -5.62041,5.93163 -11.17761,11.92229 -7.82097,8.50501 -15.92387,16.72833 -24.07265,24.91781 -1.3016,1.30862 -2.60168,2.61877 -3.90014,3.93052 -6.69381,6.756 -13.36323,13.31423 -20.85196,19.19516 -1.9802,1.57162 -3.83332,3.21637 -5.67772,4.94368 -3.36771,2.96389 -6.95535,5.49951 -10.67004,8.00254 -0.52176,0.3551 -1.04351,0.71018 -1.58105,1.07602 -11.3908,7.52843 -23.6888,13.74268 -35.8234,19.96769 -0.65556,0.33754 -1.3111,0.6751 -1.9865,1.0229 -11.79985,6.07176 -23.70566,11.91355 -35.6789,17.63509 -6.3863,3.05719 -12.7026,6.17216 -18.82658,9.7362 0,0.62597 0,1.25194 0,1.8969 48.21782,1.17604 96.92018,-7.51361 142.60678,-22.71161 47.23605,-15.95522 91.57336,-39.69676 130.65483,-70.69578 7.32636,-5.8884 14.41197,-12.04375 21.36141,-18.37249 1.43284,-1.30023 2.87682,-2.58838 4.33469,-3.8605 5.57834,-4.89409 10.85001,-10.06729 16.10511,-15.30484 0.72135,-0.717 1.44269,-1.43396 2.18588,-2.17267 4.46532,-4.4775 8.69875,-9.09006 12.81147,-13.89168 0.90052,-1.02713 1.802,-2.05343 2.70456,-3.07874 28.57599,-32.75948 49.97496,-69.65689 68.4291,-108.83822 -0.31299,-1.25194 -0.62598,-2.50391 -0.94846,-3.79379 -23.36205,-0.75361 -44.80638,4.0919 -66.39141,12.98189 z"
     fill="#000000"
     id="path2"
     style="stroke-width:0.948448" />
</svg>
