<?xml version="1.0" encoding="UTF-8" standalone="no"?>
<svg
   version="1.1"
   width="1100"
   height="1100"
   id="svg8"
   sodipodi:docname="ATLA_Water.svg"
   inkscape:version="1.4.4 (dcaf3e7, 2026-05-05)"
   xmlns:inkscape="http://www.inkscape.org/namespaces/inkscape"
   xmlns:sodipodi="http://sodipodi.sourceforge.net/DTD/sodipodi-0.dtd"
   xmlns="http://www.w3.org/2000/svg"
   xmlns:svg="http://www.w3.org/2000/svg">
  <defs
     id="defs8" />
  <sodipodi:namedview
     id="namedview8"
     pagecolor="#ffffff"
     bordercolor="#000000"
     borderopacity="0.25"
     inkscape:showpageshadow="2"
     inkscape:pageopacity="0.0"
     inkscape:pagecheckerboard="0"
     inkscape:deskcolor="#d1d1d1"
     inkscape:zoom="0.72263336"
     inkscape:cx="417.91594"
     inkscape:cy="768.71624"
     inkscape:window-width="2256"
     inkscape:window-height="1398"
     inkscape:window-x="-11"
     inkscape:window-y="-11"
     inkscape:window-maximized="1"
     inkscape:current-layer="svg8" />
  <path
     d="m 614.21122,37.141242 c 1.22928,0.144536 2.45857,0.289072 3.7251,0.437988 61.80534,7.555194 121.53259,25.885344 177.2749,53.562012 7.44632,3.801125 14.75464,7.830017 22,11.999998 0.83934,0.48292 1.67868,0.96583 2.54346,1.46338 18.5289,10.7401 36.41084,22.56857 53.45654,35.53663 0.71253,0.54124 1.42506,1.08249 2.15918,1.64014 16.94229,12.91621 33.32852,26.5529 48.24317,41.79736 1.7556,1.71697 3.59752,3.28976 5.47265,4.875 3.83826,3.31819 7.15951,6.94796 10.50781,10.75391 2.54849,2.85659 5.15499,5.64542 7.78345,8.42797 6.24451,6.61697 12.19953,13.35489 17.83374,20.50562 0.8445,1.05253 1.68958,2.10459 2.53516,3.15625 35.42952,44.303 63.67862,94.30433 82.46482,147.84375 0.364,1.0132 0.728,2.02641 1.1031,3.07031 16.6637,46.53436 26.9199,97.35857 27.1001,146.85547 0.011,1.94046 0.011,1.94046 0.021,3.92012 0.02,4.15554 0.025,8.31102 0.025,12.4666 3e-4,0.70826 6e-4,1.41651 9e-4,2.14623 0,20.9955 -0.2095,41.72057 -3.2509,62.54127 -0.2064,1.46755 -0.4125,2.93517 -0.6181,4.40283 -8.606,60.68259 -27.6503,118.5036 -56.3819,172.59717 -3.7683,6.91073 -7.6652,13.74608 -11.6001,20.56299 -1.185,2.06293 -2.3523,4.13344 -3.5054,6.21435 -9.04215,16.21427 -19.11132,31.80653 -30.52143,46.45264 -1.32253,1.7049 -2.62442,3.42344 -3.91992,5.14893 -7.91771,10.5089 -16.25826,20.73793 -25.72657,29.89453 -1.68998,1.68998 -3.20764,3.44523 -4.72656,5.28906 -3.31052,3.92685 -7.08673,7.12627 -11,10.4375 -1.02212,0.89436 -2.04285,1.79031 -3.0625,2.6875 -7.41907,6.49492 -15.08232,12.52414 -23.00781,18.38672 -3.65211,2.70477 -7.23909,5.48331 -10.80469,8.30078 -0.56888,0.4473 -1.13776,0.89461 -1.72387,1.35547 -3.12488,2.45994 -6.23244,4.93943 -9.32691,7.4375 -19.10522,15.2931 -39.83116,28.70825 -61.07422,40.83203 -0.8424,0.48098 -1.6848,0.96196 -2.55273,1.45752 -53.53262,30.32923 -111.94524,50.69413 -172.51367,61.26513 -61.43192,10.174 -125.01005,10.5361 -186.33449,-0.7155 -62.04894,-11.6203 -121.83215,-32.5337 -176.32347,-64.64948 -17.61621,-10.52743 -34.54856,-21.95708 -51.05298,-34.14283 -1.28246,-0.94673 -2.56502,-1.89335 -3.84766,-2.83984 -0.63349,-0.46761 -1.26699,-0.93522 -1.91968,-1.41699 -3.67216,-2.69575 -7.39018,-5.27845 -11.20532,-7.77051 -19.4931,-12.84714 -38.14765,-27.24746 -54.25,-44.1875 0,-0.66 0,-1.32 0,-2 -0.66,0 -1.32,0 -2,0 -10.98542,-13.14277 -21.56627,-26.69411 -31,-41 -0.5008,-0.75813 -1.0016,-1.51626 -1.51758,-2.29736 -8.28765,-12.62105 -15.89144,-25.53326 -23.18084,-38.75342 -2.427842,-4.40121 -4.921648,-8.75413 -7.477783,-13.08179 -29.524191,-50.04239 -49.3837,-104.5443 -60.330811,-161.53149 -2.938345,-16.0167 -5.021076,-32.12063 -6.492187,-48.33594 -0.09571,-0.96341 -0.191426,-1.92683 -0.29004,-2.91943 -2.940128,-33.79041 -2.392617,-69.45833 2.29004,-103.08057 0.09946,-0.71426 0.198918,-1.42852 0.301391,-2.16443 8.475281,-59.95403 26.646788,-117.70193 54.830445,-171.36536 15.842272,-29.42786 34.410245,-58.2983 56.368165,-83.57177 2.33796,-2.71058 4.58064,-5.47541 6.8125,-8.27344 5.29766,-6.5021 11.05573,-12.55122 16.81836,-18.63818 1.86155,-1.97875 3.70367,-3.97388 5.54102,-5.9751 8.70937,-9.4583 17.77958,-18.40113 27.32812,-27.01172 0.86311,-0.78021 0.86311,-0.78021 1.74365,-1.57617 10.21997,-9.16787 21.19865,-17.3032 32.25635,-25.42383 0.76893,-0.56896 1.53785,-1.13792 2.33008,-1.72412 11.58783,-8.57006 23.47708,-16.59165 35.66992,-24.27588 0.96704,-0.61005 0.96704,-0.61005 1.95362,-1.23243 51.08785,-31.980138 108.18085,-54.535391 167.04705,-67.197937 20.17559,-4.269294 40.49452,-7.359773 60.99933,-9.569641 1.06847,-0.118594 2.13695,-0.237187 3.23779,-0.359375 37.17469,-3.932219 75.66373,-3.009266 112.76221,1.359375 z m -115,64.999998 c 3.25809,2.17206 6.31026,3.04562 10.03516,4.03125 1.45105,0.3963 2.90189,0.79339 4.35254,1.19116 0.76236,0.20769 1.52472,0.41538 2.31018,0.62937 31.90174,8.74536 63.16136,20.63207 90.46277,39.6536 8.41068,5.99892 16.3206,12.40423 23.83935,19.49463 1.14875,1.05967 2.29857,2.11818 3.44922,3.17578 24.08689,22.20098 24.08689,22.20098 33.46484,35.17969 1.88451,2.38916 3.56164,3.9826 6.08594,5.64453 1.98,-0.66 3.96,-1.32 6,-2 0.50225,-0.5232 1.0045,-1.0464 1.52197,-1.58545 11.92957,-12.35922 23.2018,-23.15514 38.41553,-31.28955 7.14524,-3.41939 14.35123,-5.41547 22.0625,-7.125 0.7873,-0.17507 1.57459,-0.35014 2.38574,-0.53052 10.04117,-1.80325 21.62609,-1.37983 31.66895,0.21411 12.63446,2.43673 24.52202,7.04055 35.63281,13.50391 7.27846,4.41745 13.34514,9.77462 19.3125,15.8125 1.10795,1.09248 1.10795,1.09248 2.23828,2.20703 6.71904,7.03216 11.37955,15.43156 15.30469,24.26563 3.0914,7.75116 5.42424,15.28289 5.79297,23.65625 0.17932,10.72219 -0.19828,20.71475 -3.65137,30.9414 -0.22591,0.6368 -0.45181,1.2736 -0.68457,1.92969 -0.24137,0.6832 -0.48275,1.36641 -0.73144,2.07031 -2.20826,6.02202 -4.65654,11.68112 -8.40528,16.91016 -2.17367,2.5075 -4.41571,4.78044 -6.86328,7.01953 -0.66387,0.62004 -1.32773,1.24008 -2.01172,1.87891 -6.73817,5.73707 -14.84595,9.75602 -22.98828,13.12109 -7.62717,2.66064 -15.22641,3.44119 -23.25415,3.35205 -4.73359,-0.16662 -9.04963,-0.70604 -13.50757,-2.31689 -4.12632,-1.90834 -7.76052,-4.09809 -11.23828,-7.03516 -3.08899,-3.13715 -5.22707,-6.48139 -7.21875,-10.39453 -2.29155,-5.4588 -3.24752,-10.84497 -3.65625,-16.73047 -0.23547,-4.98965 -0.34687,-9.85719 0.9961,-14.70313 1.86634,-4.61193 4.34095,-8.90204 6.8789,-13.17187 3.96,-2.97 3.96,-2.97 8,-6 3.465,-0.99 3.465,-0.99 7,-2 -0.42152,0.81984 -0.84304,1.63969 -1.27734,2.48437 -0.54785,1.07766 -1.0957,2.15532 -1.66016,3.26563 -0.81791,1.60101 -0.81791,1.60101 -1.65234,3.23437 -1.16692,2.49546 -2.00906,4.32828 -2.41016,7.01563 -0.069,2.59374 -0.0943,5.1581 -0.0625,7.75 0.007,1.04607 0.007,1.04607 0.0137,2.11328 0.0254,3.70724 0.39176,6.17617 1.67383,9.63672 2.05049,5.17785 4.81393,9.25045 8.375,13.5 3.27113,2.10476 3.27113,2.10476 6.84766,3.58203 4.36196,0.84706 8.73625,0.77411 13.15234,0.41797 3.10842,-0.76817 6.04413,-1.77386 9,-3 7.3859,-5.8209 14.05478,-11.44181 19.35547,-19.32031 4.24487,-6.91682 7.35742,-13.58478 9.14063,-21.54297 1.03754,-6.45851 1.00657,-12.66334 0.0703,-19.13281 -1.77312,-8.29291 -5.27434,-15.74169 -9.56641,-23.00391 -4.18819,-6.20592 -8.92031,-11.19721 -14.8125,-15.8125 -7.30496,-5.18866 -14.94349,-9.29454 -23.5,-12 -8.18163,-2.20076 -16.23972,-2.81159 -24.6875,-2.1875 -10.03855,1.60494 -19.26007,4.79435 -28.17969,9.67969 -9.38304,5.49193 -17.07448,13.01216 -23.99365,21.33154 -6.3511,7.94065 -11.62101,16.73634 -15.82666,25.98877 -2.00373,6.7499 -1.42484,14.19348 -1.18359,21.15967 0.64862,10.03468 2.59214,20.45208 6.24609,29.84033 0.94217,2.01769 1.92842,4.01492 2.9375,6 0.38076,0.77344 0.76152,1.54687 1.15381,2.34375 6.84327,13.8671 14.00509,26.61442 25.27588,37.43359 8.55502,7.39789 18.01835,14.03778 28.57031,18.22266 7.95624,2.62876 15.70147,3.48685 24.0625,3.28125 7.12364,-0.50883 13.98533,-1.6628 20.9375,-3.28125 0.73171,-0.16677 1.46341,-0.33355 2.21729,-0.50537 14.02685,-3.36681 26.15081,-9.97323 38.22217,-17.75781 5.45238,-3.69835 10.04704,-7.93126 14.56054,-12.73682 1.09182,-1.09048 2.18567,-2.17892 3.28125,-3.26563 9.60752,-9.71212 16.33248,-20.2195 22.03125,-32.60937 4.39019,-10.73157 7.2908,-22.69885 7.77954,-34.31201 0.0412,-2.27199 0.0446,-4.54069 0.033,-6.81299 0.004,-0.75539 0.008,-1.51078 0.0117,-2.28906 -0.009,-4.98666 -0.42989,-9.77437 -1.13672,-14.71094 -1.98,-2.31 -3.96,-4.62 -6,-7 -0.66,0 -1.32,0 -2,0 0,-0.66 0,-1.32 0,-2 -0.42668,-0.36609 -0.85336,-0.73219 -1.29297,-1.10938 -3.26484,-2.82728 -6.49762,-5.67818 -9.64062,-8.64062 -7.14323,-6.72598 -14.52196,-12.92564 -22.30908,-18.89111 -1.74579,-1.34997 -3.4708,-2.72251 -5.19092,-4.10498 -19.13847,-15.35326 -39.98315,-28.61445 -61.56641,-40.25391 -0.8345,-0.45343 -1.66901,-0.90686 -2.52881,-1.37402 -45.80562,-24.7862 -95.96646,-41.69395 -147.47119,-49.62599 -5.74077,-0.82277 -11.49314,-1.54986 -17.25,-2.25 -0.67957,-0.0831 -1.35913,-0.16617 -2.05929,-0.25177 -17.54803,-2.119429 -34.85008,-2.699281 -52.50321,-2.685728 -1.08311,-3.93e-4 -2.16623,-7.85e-4 -3.28216,-0.0012 -18.41196,0.008 -36.66906,0.415776 -54.90534,3.188688 z m -89,31.00001 c -1.35622,0.24447 -2.71251,0.48859 -4.06885,0.73242 -9.278,1.67955 -18.52276,3.49556 -27.75488,5.41065 -3.60493,0.74639 -7.21915,1.43442 -10.83642,2.11865 -18.79413,3.82125 -34.41846,13.13872 -50.66797,22.92578 -4.62376,2.83939 -9.1595,5.79998 -13.67188,8.8125 -0.78133,0.51772 -1.56266,1.03544 -2.36767,1.56885 -15.74577,10.46643 -30.78399,21.72518 -45.07715,34.10254 -1.51048,1.29042 -3.05011,2.54649 -4.59033,3.80127 -8.45574,6.92936 -16.17969,14.55384 -23.90235,22.27734 -0.54443,0.54352 -1.08885,1.08704 -1.64978,1.64703 -6.01917,6.02031 -11.91652,12.09472 -17.41272,18.60297 -0.91238,1.05631 -1.82513,2.11232 -2.73828,3.16797 -9.28689,10.89343 -17.91714,22.2009 -26.26172,33.83203 0.66,0.33 1.32,0.66 2,1 1.09538,-0.35715 2.19076,-0.7143 3.31934,-1.08228 21.71977,-7.06404 43.35192,-14.01968 65.68066,-18.91772 0.7968,-0.18772 1.59361,-0.37544 2.41455,-0.56885 19.14395,-4.43667 40.79478,-3.86674 60.25733,-1.84521 22.39063,2.98554 46.1307,10.33134 66.32812,20.41406 11.26424,5.92344 20.19396,14.94935 29,24 1.98,0 3.96,0 6,0 0.93199,-0.62906 1.86399,-1.25813 2.82422,-1.90625 9.32911,-6.27281 18.79232,-12.2406 28.41797,-18.05078 5.41666,-3.29286 10.64503,-6.66904 15.75781,-10.41797 13.78843,-9.63028 29.85611,-16.11271 46,-20.625 12.36846,-3.223 25.41459,-3.73219 38.11328,-2.69141 12.58229,1.20172 24.41445,4.20737 36.02344,9.29688 9.25416,4.50714 17.28092,10.53528 24.46729,17.87793 6.74353,7.32613 11.91214,16.15024 15.82568,25.28222 4.03919,10.27889 6.93305,22.14806 7.51172,33.19532 0.029,1.50433 0.029,1.50433 0.0586,3.03906 0.0243,0.73122 0.0487,1.46244 0.0737,2.21582 0.45972,14.68253 -0.54408,28.26738 -5.02319,42.30371 -3.70521,10.88399 -8.83931,20.67217 -16.02564,29.67236 -5.03654,6.05545 -10.39331,11.48523 -17.0249,15.80811 -6.98143,4.02775 -14.20706,7.69912 -22.09375,9.56641 -7.00909,1.04571 -13.94991,0.94832 -20.96875,0.0351 -8.89526,-1.86124 -17.18389,-5.93959 -24.9375,-10.60156 -8.01153,-5.49851 -15.04754,-12.32659 -21,-20 -3.62091,-5.61911 -6.82778,-11.34731 -8.4375,-17.875 -0.61586,-3.77043 -0.89784,-7.30213 -0.5625,-11.125 1.16162,-5.75928 3.17234,-10.58547 6.1875,-15.625 2.77795,-4.39335 5.87299,-7.01201 9.94922,-10.26953 5.06985,-3.72804 10.44593,-6.18248 16.30078,-8.41797 4.87583,-0.94095 9.61361,-0.84859 14.5625,-0.6875 1.65,0.66 3.3,1.32 5,2 0.33,0.66 0.66,1.32 1,2 -1.11117,0.15855 -2.22234,0.31711 -3.36719,0.48047 -10.15257,1.53276 -10.15257,1.53276 -19.69531,5.20703 -1.32575,0.7478 -2.64479,1.50892 -3.9375,2.3125 -3.22466,3.82993 -6.11047,7.59005 -7.875,12.3125 -1.54886,5.18098 -1.39537,10.33021 -1.125,15.6875 3.10586,5.65425 6.22221,10.92379 10.96875,15.34766 7.54413,6.13686 15.88725,10.42356 25.03125,13.65234 6.18652,2.01666 12.26996,2.35349 18.75781,2.26953 4.67059,-0.38828 8.87482,-1.61328 13.24219,-3.26953 5.87269,-4.12338 11.42672,-8.43407 16,-14 5.44329,-8.14507 9.51833,-16.47496 12,-26 1.68829,-7.738 1.51879,-15.85409 0.53906,-23.68359 -1.59705,-9.02807 -4.28837,-17.1879 -8.53906,-25.31641 -5.60743,-9.52373 -12.52498,-17.90129 -21,-25 -7.21072,-5.59517 -15.01585,-9.9642 -23.64062,-13.00391 -8.45495,-2.50699 -16.91761,-4.34632 -25.76441,-4.22143 -4.4512,0.38653 -8.46671,1.73365 -12.65747,3.22534 -1.36137,0.47204 -1.36137,0.47204 -2.75024,0.95361 -16.47212,5.85746 -31.38237,13.6725 -45.06226,24.60889 -1.72208,1.46314 -3.4316,2.94126 -5.125,4.4375 -0.6948,0.61101 -1.38961,1.22203 -2.10547,1.85156 -7.06279,6.62577 -12.9453,14.67833 -17.53515,23.19141 -3.83084,8.55016 -5.84734,17.69257 -6.60938,27.01562 -0.36442,16.7861 3.7711,32.4174 9.00147,48.21045 5.34904,15.65302 12.55965,29.07119 22.85205,42.00733 2.70113,3.33391 5.48948,6.56891 8.39648,9.72363 11.86289,4.2067 23.62785,7.65845 36,10 1.72283,0.34031 1.72283,0.34031 3.48047,0.6875 16.72436,2.77135 35.08593,2.73286 51.78027,-0.21118 16.02674,-3.18543 31.50617,-8.37039 45.73926,-16.47632 4.26014,-2.6795 8.15233,-5.76144 12,-9 0.69867,-0.53754 1.39735,-1.07508 2.11719,-1.62891 7.84181,-6.28289 13.99972,-14.71585 19.33984,-23.16797 8.95625,-14.84124 13.70684,-30.47474 17.03418,-47.40014 4.55884,-24.47907 3.90133,-51.04016 0.0522,-75.58716 -4.62358,-27.35929 -12.09746,-53.90843 -23.54346,-79.21582 -0.32436,-0.71753 -0.64872,-1.43505 -0.98291,-2.17432 -4.80636,-10.36192 -11.30437,-18.47274 -19.01709,-26.82568 -1.12711,-1.24667 -2.2534,-2.49407 -3.3789,-3.74219 -5.57839,-6.14307 -11.21141,-11.97304 -17.6211,-17.25781 -0.96293,-0.83918 -1.92586,-1.67836 -2.91797,-2.54297 -15.74921,-13.69913 -33.24752,-24.52858 -52.08203,-33.45703 -1.59135,-0.76957 -1.59135,-0.76957 -3.21484,-1.55469 -18.86587,-8.62839 -39.27323,-13.74791 -59.78516,-16.44531 -0.73774,-0.10168 -1.47549,-0.20335 -2.23559,-0.30811 -22.39395,-2.68584 -46.64063,-1.78038 -68.76441,2.30811 z m 503,134 c -0.095,0.638 -0.18997,1.27601 -0.28784,1.93335 -2.7585,18.2323 -5.91764,35.06991 -14.68872,51.42602 -0.67078,1.21559 -1.34501,2.42929 -2.02344,3.64063 -0.54398,0.97453 -1.08797,1.94906 -1.64844,2.95312 -7.43164,12.39817 -17.9654,24.01532 -29.01171,33.27735 -11.40691,8.9198 -24.42471,16.51196 -38.19873,21.08887 -0.70657,0.22461 -1.41314,0.44923 -2.14112,0.68066 -1.13913,0.364 -1.13913,0.364 -2.30127,0.73535 -18.09912,5.46973 -36.89182,5.33873 -55.61633,4.39221 -16.39793,-1.0045 -32.00121,-5.45475 -47.57898,-10.43493 -2.81402,-0.77856 -5.61836,-1.25581 -8.50342,-1.69263 -0.32162,0.99105 -0.64324,1.98209 -0.97461,3.00317 -9.86034,30.31029 -20.05415,60.91491 -39.02539,86.99683 -3.41,4.247 -7.15541,8.14444 -11,12 -0.53133,0.55107 -1.06267,1.10215 -1.61011,1.66992 -4.17543,4.28589 -8.5709,8.07855 -13.32739,11.70508 -0.73364,0.55945 -1.46727,1.11891 -2.22314,1.69531 -7.22364,5.39414 -14.80869,9.85503 -22.83936,13.92969 -0.96293,0.48984 -1.92586,0.97969 -2.91797,1.48437 -10.36696,4.96145 -21.25255,8.28262 -32.45703,10.70313 -0.70512,0.15477 -1.41023,0.30954 -2.13672,0.46899 -16.65555,3.40026 -33.17245,3.6671 -50.11328,3.59351 -1.17323,-0.002 -2.34645,-0.004 -3.55523,-0.005 -21.31957,-0.0377 -42.55061,-0.81067 -63.81977,-2.24463 -1.65,0.66 -3.3,1.32 -5,2 -2.32128,5.70893 -3.66687,11.06698 -4.6875,17.125 -3.21527,17.29753 -9.90152,33.48432 -18.3125,48.875 -0.48984,0.90621 -0.97969,1.81242 -1.48437,2.74609 -7.26593,12.75619 -17.28776,24.80272 -28.16407,34.65235 -2.72938,2.28115 -5.51748,4.4521 -8.35156,6.60156 -0.96551,0.7657 -1.93101,1.53141 -2.92578,2.32031 -15.87538,12.25604 -34.37891,20.75111 -53.38721,26.84424 -9.45585,2.89841 -18.9154,5.29891 -28.68701,6.83545 -0.71317,0.11424 -1.42635,0.22849 -2.16113,0.34619 -20.4279,3.11823 -41.8434,2.82626 -62.12793,-1.15869 -17.33342,-3.66558 -33.56191,-9.95799 -48.71094,-19.1875 -3.53942,-2.47587 -6.78684,-5.12067 -10,-8 -0.94746,-0.73734 -1.89492,-1.47469 -2.87109,-2.23438 -3.73015,-3.10209 -6.49916,-6.8244 -9.37891,-10.70312 -0.56356,-0.75217 -1.12712,-1.50434 -1.70776,-2.2793 -1.14506,-1.53301 -2.28662,-3.06863 -3.42456,-4.60693 -1.44943,-1.94992 -2.92118,-3.87973 -4.40283,-5.80518 -6.84595,-9.03187 -12.51668,-18.77287 -15.92627,-29.63818 -3.54619,-12.68515 -4.47531,-25.03979 -4.47388,-38.16919 -0.002,-2.22912 -0.0204,-4.45774 -0.0393,-6.68677 -0.0534,-13.30531 1.34091,-25.94828 5.62305,-38.60351 6.14356,-16.91649 15.17627,-32.06231 26.59375,-45.92969 12.31849,-14.37956 25.38284,-25.02533 41.75952,-34.43237 13.7565,-7.6816 27.66656,-12.30766 43.06079,-15.49341 10.41184,-1.36528 21.66656,-1.37902 31.99048,0.60766 10.63349,2.43442 20.097,7.13875 29.29077,12.91968 7.85132,5.4474 14.83172,11.78917 20.50781,19.5 7.78966,11.04888 13.85241,23.02083 17.55469,36.0586 3.2469,13.45356 5.05366,26.85236 3.6167,40.68115 -1.38527,11.0162 -4.41604,20.88143 -9.26514,30.89697 -3.64644,6.79565 -8.1237,12.23248 -13.68359,17.51172 -4.01657,3.42214 -8.12288,6.03368 -12.82422,8.40625 -0.85078,0.44988 -1.70156,0.89976 -2.57812,1.36328 -8.31631,4.12168 -16.84492,5.90083 -26.00391,7.10938 -6.64955,0.63782 -12.9571,0.68183 -19.52734,-0.60938 -5.07996,-1.51712 -9.44479,-4.01854 -13.89063,-6.86328 -0.9075,-0.5775 -1.815,-1.155 -2.75,-1.75 -4.46256,-4.46257 -7.81536,-9.55362 -10.77344,-15.11328 -1.9526,-4.26074 -3.33194,-8.1351 -4.0039,-12.78906 -0.2474,-3.12131 -0.41712,-6.21758 -0.47266,-9.34766 1.485,-4.455 1.485,-4.455 3,-9 3.38581,-2.90212 5.73489,-4.29396 10,-6 0,8.25 0,16.5 0,25 1.98,3.465 1.98,3.465 4,7 4.36134,3.9086 4.36134,3.9086 7.57959,4.979 5.30837,1.58456 10.52385,1.39295 16.03125,1.3916 1.98796,0.004 3.97577,0.0413 5.96338,0.0786 6.43409,0.0193 12.05109,-0.35826 18.19141,-2.3711 4.23107,-1.57303 7.72447,-3.17863 11.23437,-6.07812 6.11106,-5.47641 11.29738,-11.14552 15.53125,-18.19531 2.8096,-5.36514 4.72352,-10.88585 6.21875,-16.74219 0.58538,-7.17087 0.70003,-14.00267 -0.875,-21.0625 -2.18195,-7.72229 -5.41855,-14.50224 -10.03125,-21.07031 -5.95157,-7.55541 -12.6782,-13.84324 -20.84375,-18.92969 -9.12739,-5.29919 -18.94155,-9.40177 -29.33594,-11.375 -10.31171,-1.58434 -21.16065,-1.69662 -31.45703,0 -3.22819,0.89828 -6.14824,2.007 -9.20703,3.375 -0.95229,0.41862 -0.95229,0.41862 -1.92383,0.8457 -8.96406,4.00197 -16.74066,8.55359 -24.07617,15.1543 -0.85207,0.74508 -1.70414,1.49016 -2.58203,2.25781 -2.50438,2.21527 -4.96806,4.46697 -7.41797,6.74219 -0.60457,0.55043 -1.20914,1.10086 -1.83203,1.66797 -9.83683,9.33001 -18.06955,21.24862 -24.16797,33.33203 -4.16707,9.15325 -7.40357,18.63651 -8.21948,28.70972 -0.45359,10.7919 -0.45035,21.36684 2.82886,31.73559 3.92352,10.02923 8.46149,19.26606 15.54687,27.46875 0.60844,0.68836 1.21688,1.37672 1.84375,2.08594 0.44344,0.58523 0.88688,1.17047 1.34375,1.77344 5.41489,7.03275 13.07389,12.54061 20.44141,17.40527 12.65819,7.93615 26.65992,13.99477 41.24707,17.27881 15.93727,3.33495 32.45307,3.83713 48.59741,1.71802 14.02771,-2.14844 27.06217,-6.32558 39.57349,-13.03882 13.18606,-7.33185 23.87296,-16.81006 33.79687,-28.13672 4.07928,-5.06773 7.61795,-10.4496 11,-16 0.36916,-0.59909 0.73831,-1.19818 1.11865,-1.81543 14.22326,-23.3048 23.96767,-50.14265 29.42823,-76.86035 2.79531,-20.50699 2.40303,-43.97803 -1.69702,-64.2544 -1.40128,-6.41582 -3.0696,-12.74874 -4.84986,-19.06982 -0.29358,-1.09683 -0.58717,-2.19366 -0.88965,-3.32373 -4.69856,-17.48372 -11.11006,-34.48222 -21.11035,-49.67627 -2.21567,-3.10789 -4.55938,-6.06684 -7,-9 -0.49629,-0.64195 -0.99258,-1.28391 -1.5039,-1.94531 -6.69522,-8.28931 -15.63965,-14.86877 -24.70972,-20.36792 -14.95641,-8.66968 -31.53477,-13.84088 -48.44483,-17.09961 -22.00327,-3.75554 -46.51155,-2.9454 -68.44213,0.86499 -25.77705,4.87064 -50.37291,12.58795 -73.30957,25.46191 -16.26875,10.0221 -29.5338,23.4434 -41.58985,38.08594 -12.84359,33.51052 -22.82675,67.23348 -28.25,102.8125 -0.15122,0.9871 -0.30245,1.9742 -0.45825,2.99121 -2.86223,20.04692 -3.667977,40.03017 -3.604251,60.25879 0.0018,1.20639 0.0036,2.41278 0.0055,3.65573 0.04641,18.27697 0.570481,36.18375 3.306971,54.28177 0.19288,1.29696 0.38576,2.59392 0.58448,3.93017 1.93048,12.82204 4.07968,25.52603 7.41552,38.06983 7.67032,6.43327 15.74414,11.99658 24.12501,17.4375 0.64085,0.41803 1.28169,0.83606 1.94196,1.26675 9.4463,6.15676 18.9734,12.00504 28.93304,17.29575 1.12535,0.64453 2.25071,1.28906 3.41016,1.95312 19.24238,10.94064 40.78491,18.80854 62.60107,22.56543 17.2289,2.67779 34.44648,3.69508 51.86377,3.66895 1.21854,-0.001 1.21854,-0.001 2.4617,-0.003 40.60558,-0.10096 80.03552,-7.23677 118.27414,-20.92978 51.73828,-19.1568 98.16329,-49.63496 141.29785,-83.60888 1.97862,-1.5573 3.96172,-3.10865 5.94678,-4.65772 7.12769,-5.5683 14.16282,-11.23742 21.14453,-16.98828 1.79158,-1.45844 3.58325,-2.91678 5.375,-4.375 6.27233,-5.13352 12.45532,-10.36902 18.625,-15.625 0.58749,-0.49967 1.17498,-0.99935 1.78028,-1.51416 5.80896,-4.94343 11.60042,-9.88888 17.21972,-15.04834 4.90527,-4.44915 10.0761,-8.50172 15.30469,-12.55859 3.70448,-2.87484 7.35666,-5.81187 11.00781,-8.75391 5.97451,-4.79997 12.03264,-9.48073 18.13111,-14.12183 5.29462,-4.03082 10.55786,-8.10004 15.80639,-12.19067 8.534,-6.64894 17.09497,-13.26124 25.69531,-19.82422 0.69022,-0.52707 1.38043,-1.05413 2.09156,-1.59717 1.44906,-1.10576 2.89912,-2.21022 4.35009,-3.31347 3.5497,-2.70553 7.07309,-5.43313 10.53882,-8.24561 9.83808,-7.93184 20.13358,-15.07023 30.63672,-22.08203 1.02952,-0.6898 1.02952,-0.6898 2.07984,-1.39353 30.82543,-20.60845 63.14207,-37.69174 99.34399,-46.64993 32.586,-7.63965 65.50422,-7.87781 98.79315,-7.77521 3.7623,0.0104 7.52461,0.0149 11.28693,0.0198 7.31122,0.0105 14.6224,0.0275 21.93359,0.0488 -0.4613,-1.41203 -0.92509,-2.82325 -1.38989,-4.23413 -0.258,-0.78596 -0.516,-1.57192 -0.78182,-2.3817 -1.30003,-3.74204 -2.8867,-7.33824 -4.51579,-10.94667 -0.52328,-1.16608 -0.52328,-1.16608 -1.05713,-2.35571 -3.21161,-7.09455 -6.62255,-14.07502 -10.18701,-20.99829 -1.11344,-2.17142 -2.20784,-4.35189 -3.30273,-6.53272 -12.95011,-25.49696 -29.3784,-49.65503 -47.76563,-71.55078 -0.33,0 -0.66,0 -1,0 z m 21.20264,165.14062 c -42.78625,1.67911 -85.64483,7.04312 -125.76514,22.79688 -0.73605,0.2873 -1.47211,0.5746 -2.23047,0.8706 -13.35602,5.47751 -25.37726,13.01956 -37.20703,21.1919 -1.35533,0.92829 -2.71105,1.85602 -4.06714,2.7832 -3.36153,2.30163 -6.71631,4.61286 -10.06805,6.92871 -1.7437,1.20443 -3.48876,2.40684 -5.23444,3.6084 -22.4498,15.46566 -44.53823,31.38944 -65.9082,48.3208 -1.74393,1.37606 -3.49543,2.74188 -5.24951,4.10498 -7.99812,6.22297 -15.79421,12.64119 -23.47266,19.25391 -0.61553,0.52916 -1.23105,1.05832 -1.86523,1.60351 -6.18411,5.32121 -12.34947,10.65637 -18.38477,16.14649 -3.31439,3.00761 -6.70659,5.8743 -10.1875,8.6875 -3.80337,3.07586 -7.46332,6.25003 -11.0625,9.5625 -4.46985,4.11379 -9.09045,7.97087 -13.8164,11.78516 -2.63068,2.17117 -5.16302,4.41725 -7.6836,6.71484 -4.17015,3.79164 -8.45793,7.38985 -12.83984,10.93359 -2.36253,1.91064 -4.70408,3.84486 -7.03906,5.78907 -9.11212,7.57851 -18.365,14.92179 -27.83204,22.05175 -2.46535,1.85848 -4.92406,3.72557 -7.38281,5.59278 -8.80195,6.66612 -17.61452,13.163 -26.90625,19.13281 -1.2561,0.83198 -2.51124,1.66542 -3.76562,2.5 -10.36148,6.85455 -21.0039,13.12764 -31.85547,19.17334 -2.0384,1.13677 -4.06866,2.28654 -6.09766,3.43994 -29.28303,16.21985 -61.17206,26.86389 -93.28125,35.88672 -0.98275,0.28359 -1.9655,0.56719 -2.97803,0.85937 -15.50434,4.46214 -31.01193,7.20266 -47.02197,9.14063 -0.93731,0.11859 -1.87462,0.23719 -2.84033,0.35937 -39.33868,4.78993 -81.48303,3.06027 -120.10498,-5.67187 -22.38506,-5.34037 -43.21639,-15.124 -63.05469,-26.6875 -0.66,0 -1.32,0 -2,0 8.86679,29.00179 28.2675,56.78483 46,81 0.49355,0.67901 0.9871,1.35803 1.49561,2.05762 7.07148,9.70632 14.56526,18.93343 22.50439,27.94238 23.68611,10.93205 51.8299,14.94986 77.63281,17.33594 21.87791,1.71864 43.88028,0.83947 65.38672,-3.63282 3.61971,-0.70052 7.21187,-1.00076 10.88575,-1.26757 35.00425,-2.62982 70.25316,-18.19247 102.09472,-32.43555 11.80092,-5.38831 23.41467,-11.166 35,-17 1.25716,-0.6307 2.51432,-1.2614 3.77149,-1.89209 15.13908,-7.61287 29.90242,-15.75814 44.44873,-24.44824 2.66729,-1.59251 5.34163,-3.17243 8.01806,-4.74951 27.21426,-16.09765 53.53651,-33.85247 78.76172,-52.91016 0.75281,-0.56735 1.50563,-1.1347 2.28125,-1.71924 8.72301,-6.5852 17.30563,-13.30213 25.71875,-20.28076 1.85411,-1.50007 3.70828,-3.00007 5.5625,-4.5 4.49241,-3.67328 8.82717,-7.48779 13.11719,-11.39453 2.02185,-1.83465 4.0671,-3.63316 6.13281,-5.41797 8.03693,-7.01816 15.84067,-14.25922 23.3125,-21.875 4.43129,-4.50499 9.07385,-8.53447 14.02735,-12.46875 3.23649,-2.66378 6.29134,-5.47745 9.34765,-8.34375 4.80507,-4.49998 9.75165,-8.73107 14.88672,-12.85547 2.61176,-2.14328 5.11694,-4.36833 7.61328,-6.64453 5.17558,-4.70433 10.55273,-9.11544 16,-13.5 1.13314,-0.92538 2.26594,-1.85118 3.39844,-2.77734 14.82195,-12.06303 30.30676,-23.22957 46.60156,-33.22266 0.67902,-0.41846 1.35803,-0.83692 2.05762,-1.26807 28.18109,-17.12379 63.03433,-29.02128 95.30957,-35.84521 15.84477,-3.11706 31.34933,-5.05172 47.51562,-4.98438 1.29542,10e-4 2.59084,0.003 3.92551,0.004 3.40952,0.004 6.81899,0.0136 10.22849,0.0247 3.49293,0.0103 6.98587,0.0148 10.47882,0.0198 6.82814,0.0107 13.65625,0.0277 20.48435,0.0488 0.086,-8.80319 -0.424,-17.21346 -1.625,-25.9375 -0.1738,-1.28383 -0.3477,-2.56765 -0.5268,-3.89038 -2.9742,-23.62416 -2.9742,-23.62416 -9.84818,-46.17212 -8.63466,-1.82881 -17.19848,-2.60018 -26,-3.125 -0.68784,-0.0417 -1.37569,-0.0834 -2.08438,-0.12634 -12.28653,-0.73773 -24.41097,-1.06361 -36.71298,-0.60804 z m -28.20264,129.85938 c -0.98726,0.18192 -1.97452,0.36384 -2.9917,0.55127 -20.54818,3.85731 -38.75439,11.5035 -56.73633,22.08154 -5.91912,3.56191 -11.6308,7.38229 -17.27197,11.36719 -0.72993,0.51353 -1.45986,1.02706 -2.21191,1.55615 -9.21095,6.50333 -18.15916,13.18309 -26.78809,20.44385 -1.74883,1.41811 -3.49886,2.83473 -5.25,4.25 -10.00381,8.19401 -19.74617,16.6918 -29.18701,25.52856 -2.78166,2.60045 -5.60283,5.14128 -8.47705,7.63941 -3.92604,3.41961 -7.73744,6.94618 -11.52344,10.51953 -0.6774,0.63752 -1.3548,1.27504 -2.05273,1.93188 -1.43326,1.34902 -2.86603,2.69856 -4.29834,4.04859 -2.24559,2.11419 -4.49554,4.22364 -6.74658,6.33203 -1.48832,1.39579 -2.97661,2.79162 -4.46485,4.1875 -0.68119,0.63736 -1.36238,1.27472 -2.06421,1.9314 -3.37168,3.16736 -6.68638,6.3733 -9.93579,9.66626 -3.20771,3.23041 -6.54692,6.23959 -9.99512,9.20947 -3.47508,3.0426 -6.78824,6.25541 -10.12988,9.44287 -17.28959,16.34947 -35.66938,31.00605 -55.41797,44.28906 -3.33241,2.24427 -6.60371,4.55364 -9.84643,6.92505 -7.86711,5.75253 -16.09695,10.81477 -24.46021,15.81079 -1.94681,1.1657 -3.88609,2.34261 -5.82226,3.52588 -16.36365,9.97074 -33.0175,19.52987 -50.32813,27.76172 -0.95342,0.4581 -1.90684,0.9162 -2.88916,1.38818 -49.74215,23.83272 -101.64047,41.3021 -155.11084,54.61182 -1.26247,0.31485 -2.52495,0.62971 -3.82568,0.9541 -17.57263,4.31233 -35.20031,7.07086 -53.17432,9.0459 -0.94746,0.10439 -1.89492,0.20879 -2.87109,0.31634 -6.58274,0.72077 -13.16783,1.4154 -19.75562,2.08841 -2.21076,0.22627 -4.42122,0.45543 -6.63134,0.68781 -14.63433,1.52643 -29.02897,2.20331 -43.74195,1.90744 0,0.66 0,1.32 0,2 23.62078,18.26872 47.6349,34.89162 74,49 0.91072,0.48888 1.82145,0.97775 2.75977,1.48144 5.8533,3.13079 11.73811,6.18932 17.66015,9.18799 2.17794,1.12318 4.30951,2.29605 6.43946,3.50635 7.13992,3.70483 13.99864,5.28114 21.9467,6.34647 6.4762,0.82066 12.96867,1.47483 19.46589,2.10324 3.01765,0.30315 6.01629,0.65016 9.021,1.0581 25.95064,3.50654 52.25603,0.62275 78.08106,-2.6499 5.44728,-0.68503 10.83004,-1.21416 16.31347,-1.47119 4.46194,-0.27213 8.38336,-1.02859 12.66016,-2.32031 4.54867,-1.34449 9.0958,-2.63862 13.68774,-3.82643 19.66641,-5.09067 37.19844,-11.3443 54.9646,-21.41576 1.05317,-0.58894 2.10633,-1.17788 3.19141,-1.78467 21.45077,-12.04488 41.84017,-25.52139 60.80859,-41.21533 1.50627,-1.24524 1.50627,-1.24524 3.04297,-2.51563 11.83399,-9.85868 22.92342,-20.36542 33.83203,-31.23437 0.89203,-0.88736 1.78406,-1.77472 2.70313,-2.68897 3.81274,-3.82204 7.55932,-7.64923 11.07422,-11.74853 3.42244,-3.98383 7.16317,-7.52094 11.03515,-11.0625 6.10708,-5.64628 12.04382,-11.41387 17.85938,-17.35938 2.06382,-2.01124 4.09848,-3.74017 6.45312,-5.39062 0,-0.66 0,-1.32 0,-2 0.85127,-0.36122 0.85127,-0.36122 1.71973,-0.72974 2.74028,-1.52651 4.57066,-3.35227 6.76465,-5.59448 0.85336,-0.86432 1.70672,-1.72863 2.58593,-2.61914 0.8843,-0.90557 1.7686,-1.81113 2.67969,-2.74414 5.36644,-5.47393 10.72238,-10.84834 16.54785,-15.83521 2.17766,-1.88999 4.19498,-3.90836 6.20215,-5.97729 4.00817,-4.04893 8.17663,-7.79425 12.5,-11.5 1.1155,-0.97812 2.22999,-1.95739 3.34375,-2.9375 29.49117,-25.88833 62.08616,-47.74476 98.63672,-62.40234 8.5,-3.29118 17.12557,-6.21094 25.76953,-9.09766 0.769,-0.25739 1.53799,-0.51478 2.33029,-0.77997 20.03491,-6.67518 39.30671,-9.83698 60.35721,-10.90753 1.61787,-0.0867 3.23571,-0.17394 4.85352,-0.26172 3.90269,-0.21062 7.80569,-0.41403 11.70898,-0.61328 3.43052,-10.45152 6.32138,-20.84645 8.56248,-31.625 0.2207,-1.04552 0.2207,-1.04552 0.4459,-2.11215 4.8414,-23.06155 8.3342,-46.66578 7.9916,-70.26285 -35.53543,-4.40641 -70.609,-6.84207 -105.99998,0 z m 1,162.6875 c -48.62365,20.62303 -92.48369,53.95354 -131,89.75 -0.51586,0.48412 -1.03173,0.96825 -1.56323,1.46704 -2.47385,2.31674 -4.97589,4.56266 -7.60083,6.70483 -2.3433,1.97535 -4.26499,3.85713 -6.21094,6.20313 -2.98245,3.50142 -6.12951,6.74358 -9.4375,9.9375 -1.89776,1.95199 -3.68481,3.94516 -5.46875,6 -3.63586,4.18511 -7.40461,8.22757 -11.21875,12.25 -5.9259,6.25403 -5.9259,6.25403 -11.78515,12.57031 -8.24606,8.96728 -16.78937,17.63755 -25.38108,26.27216 -1.37234,1.37976 -2.74309,2.76111 -4.11212,4.14416 -7.05764,7.12322 -14.08957,14.03791 -21.98532,20.23847 -2.08784,1.65705 -4.0417,3.3912 -5.98633,5.2124 -3.55077,3.12497 -7.33341,5.79843 -11.25,8.4375 -0.55011,0.37439 -1.10021,0.74878 -1.66699,1.13452 -12.00993,7.93761 -24.97636,14.48962 -37.77051,21.05298 -0.69118,0.3559 -1.38236,0.7118 -2.09448,1.07849 -12.4412,6.40179 -24.99413,12.5611 -37.61816,18.59363 -6.7334,3.22334 -13.39302,6.50764 -19.84986,10.26538 0,0.66 0,1.32 0,2 50.83861,1.23997 102.1881,-7.92199 150.35791,-23.94605 49.80349,-16.82244 96.55068,-41.85441 137.75635,-74.53833 7.72457,-6.20845 15.19531,-12.69835 22.52246,-19.37109 1.51074,-1.3709 3.03319,-2.72907 4.57031,-4.07031 5.88152,-5.1601 11.43972,-10.61449 16.98047,-16.13672 0.76055,-0.75596 1.5211,-1.51191 2.30469,-2.29077 4.70802,-4.72086 9.17156,-9.58413 13.50781,-14.64673 0.94947,-1.08295 1.89994,-2.16503 2.85156,-3.24609 30.1292,-34.54005 52.69127,-73.44295 72.14844,-114.75391 -0.33,-1.32 -0.66,-2.64 -1,-4 -24.63186,-0.79458 -47.24175,4.31431 -70,13.6875 z"
     fill="#000000"
     id="path2" />
</svg>
