<?xml version="1.0" encoding="UTF-8" standalone="no"?>
<svg
   version="1.1"
   width="1000"
   height="1000"
   id="svg8"
   sodipodi:docname="ATLA_Earth.svg"
   inkscape:version="1.4.4 (dcaf3e7, 2026-05-05)"
   xmlns:inkscape="http://www.inkscape.org/namespaces/inkscape"
   xmlns:sodipodi="http://sodipodi.sourceforge.net/DTD/sodipodi-0.dtd"
   xmlns="http://www.w3.org/2000/svg"
   xmlns:svg="http://www.w3.org/2000/svg">
  <defs
     id="defs8" />
  <sodipodi:namedview
     id="namedview8"
     pagecolor="#ffffff"
     bordercolor="#000000"
     borderopacity="0.25"
     inkscape:showpageshadow="2"
     inkscape:pageopacity="0.0"
     inkscape:pagecheckerboard="0"
     inkscape:deskcolor="#d1d1d1"
     inkscape:zoom="0.36131668"
     inkscape:cx="249.08897"
     inkscape:cy="1199.7785"
     inkscape:window-width="2256"
     inkscape:window-height="1398"
     inkscape:window-x="-11"
     inkscape:window-y="-11"
     inkscape:window-maximized="1"
     inkscape:current-layer="svg8" />
  <path
     d="m 573.90889,46.464045 c 1.04139,0.07638 1.04139,0.07638 2.10382,0.154297 34.56916,2.554466 71.73423,6.119397 103.89618,19.845703 7.59047,3.434377 14.36539,7.399694 20.40625,13.175782 9.98084,10.867692 18.12427,23.143273 25.59375,35.824213 0.44634,0.75137 0.89268,1.50273 1.35254,2.27686 45.60166,77.0855 76.82048,163.27293 105.9043,247.67432 1.16029,3.36577 2.32772,6.72891 3.50195,10.08984 34.34201,98.30884 63.03375,199.38098 106.24121,451.95899 0.10385,1.28954 0.2077,2.57909 0.3147,3.90771 0.75924,10.58083 0.87148,21.13963 0.87061,31.74414 0.002,2.94823 0.0204,5.89608 0.0393,8.84424 0.0579,19.4328 -1.68709,38.40132 -5.22461,57.50391 -1.485,2.475 -1.485,2.475 -3,5 -26.64643,12.97354 -59.94419,15.93522 -89.11941,18.9971 -7.6185,0.76897 -15.24648,1.41116 -22.88059,2.0029 -0.77364,0.0606 -1.54727,0.12117 -2.34436,0.18359 -80.45445,6.17726 -161.8893,0.52072 -242.27187,-3.90637 -1.86532,-0.10266 -3.73067,-0.20482 -5.59604,-0.30645 -9.60896,-0.52472 -19.20373,-1.08381 -28.78773,-1.97077 -0.99,-1.65 -1.98,-3.3 -3,-5 -0.0501,-1.0464 -0.10022,-2.0928 -0.15185,-3.1709 -0.19242,-3.98887 -0.39171,-7.97738 -0.59278,-11.96582 -0.0851,-1.70629 -0.16853,-3.41267 -0.25,-5.11914 -0.44232,-9.23973 -1.02169,-18.42824 -2.00927,-27.62696 -1.1427,-10.73154 -1.63642,-21.46152 -2.0586,-32.24218 -0.083,-2.03207 -0.16616,-4.06414 -0.24951,-6.09619 -0.20306,-5.01379 -0.39677,-10.02788 -0.58514,-15.04224 -0.0942,-2.50665 -0.1904,-5.01322 -0.28693,-7.51978 -1.43064,-37.70123 -2.43557,-75.86152 2.62158,-113.34179 0.16496,-1.24367 0.16496,-1.24367 0.33325,-2.51245 0.55933,-3.68454 1.28133,-6.47842 2.82691,-9.91724 1.40234,-2.44531 1.40234,-2.44531 3.77734,-4.69531 3.3493,-2.76836 6.78463,-4.27414 10.81885,-5.82666 4.69237,-1.54398 9.42493,-2.29395 14.30615,-2.98584 1.11746,-0.16283 2.23492,-0.32565 3.38623,-0.49341 20.99464,-2.92939 42.01383,-4.52986 63.1958,-4.98706 1.72534,-0.0401 3.45068,-0.0802 5.17601,-0.12033 19.6844,-0.44385 39.37197,-0.68801 59.06008,-0.89432 4.16478,-0.0439 8.32946,-0.0925 12.49414,-0.14551 14.06258,-0.17789 28.12394,-0.29845 42.18774,-0.29687 1.40982,-9e-5 1.40982,-9e-5 2.84811,-1.7e-4 5.41574,0.005 10.82965,0.0442 16.24474,0.12912 1.6275,0.0229 3.25513,0.0382 4.88277,0.0447 9.67385,0.0502 17.79758,1.22586 26.90889,4.55711 3.87783,1.57977 7.59926,3.26696 11.24049,5.33171 0.60586,0.32549 1.21172,0.65097 1.83594,0.98633 3.64754,2.00218 6.86687,4.26378 10.03906,6.95117 -0.33,1.98 -0.66,3.96 -1,6 -3.69835,2.9352 -7.46888,5.36098 -11.83593,7.18359 -22.31008,7.07863 -47.31552,6.83902 -70.53421,7.2314 -3.01889,0.0514 -6.03765,0.10794 -9.05643,0.16571 -8.57351,0.16332 -17.14714,0.31903 -25.72089,0.46886 -21.06187,0.37068 -42.111,0.74928 -63.14551,1.93481 -1.08653,0.0607 -1.08653,0.0607 -2.19501,0.12253 -19.74544,1.12518 -40.46902,2.54737 -58.91045,10.32669 -2.25785,1.11627 -4.44667,2.2646 -6.60157,3.56641 -1.65,1.98 -3.3,3.96 -5,6 0,8.91 0,17.82 0,27 3.23926,5.11365 3.23926,5.11365 7.25,8.875 0.9075,0.70125 1.815,1.4025 2.75,2.125 2.41352,0.80246 4.83021,1.59186 7.25,2.375 0.66258,0.22172 1.32516,0.44343 2.00782,0.67187 16.5141,5.29698 34.47378,5.39194 51.65388,4.79015 16.48959,-0.67784 32.94021,-2.04866 49.38835,-3.36095 43.29465,-3.45117 86.69423,-6.55059 129.38745,3.52393 1.0576,0.24903 2.11519,0.49806 3.20484,0.75464 4.90424,1.22076 8.85571,2.42627 13.10766,5.24536 1.80078,1.82422 1.80078,1.82422 3.3125,3.6875 0.76764,0.93392 0.76764,0.93392 1.55078,1.88672 0.37512,0.4705 0.75024,0.94101 1.13672,1.42578 0.33,2.64 0.66,5.28 1,8 -4,7 -4,7 -5.29297,8.10156 -6.00956,4.83243 -12.58065,8.00452 -19.70703,10.89844 -2.78865,0.822 -5.25915,1.12459 -8.16227,1.12305 -0.82656,0.002 -1.65312,0.004 -2.50473,0.006 -0.90273,-0.003 -1.80545,-0.006 -2.73552,-0.009 -0.96306,8.6e-4 -1.92611,0.002 -2.91834,0.003 -3.23519,0.002 -6.47032,-0.004 -9.7055,-0.009 -2.31584,-2.8e-4 -4.63167,-1.2e-4 -6.9475,4.5e-4 -6.29502,2.8e-4 -12.59003,-0.006 -18.88505,-0.0126 -6.57569,-0.006 -13.15139,-0.007 -19.72709,-0.008 -11.03953,-0.003 -22.07906,-0.009 -33.11859,-0.0179 -11.37076,-0.009 -22.74153,-0.0163 -34.1123,-0.0205 -0.70089,-2.6e-4 -1.40179,-5.3e-4 -2.12392,-8e-4 -3.51617,-10e-4 -7.03235,-0.003 -10.54852,-0.004 -29.17023,-0.0104 -58.34045,-0.0281 -87.51067,-0.0503 -0.99,0.99 -1.98,1.98 -3,3 -0.7221,3.9635 -1.43372,7.92873 -2.13623,11.89575 -0.23973,1.34555 -0.48218,2.69062 -0.72754,4.03516 -2.13324,10.96218 -2.13324,10.96218 -2.13623,22.06909 0.77805,3.81412 0.77805,3.81412 1.9375,7.375 0.35965,1.18336 0.7193,2.36672 1.08985,3.58593 0.64551,2.01692 1.30298,4.03005 1.97265,6.03907 0.84563,0.28101 1.69125,0.56203 2.5625,0.85156 2.25422,0.75311 4.50444,1.51834 6.75,2.29687 41.55117,13.82105 88.62948,13.49058 132,14.47657 0.91161,0.0207 1.82322,0.0415 2.76245,0.0628 22.35339,0.48902 44.69689,0.3855 67.05005,-0.0628 1.07462,-0.0214 2.14923,-0.0429 3.25641,-0.065 32.31458,-0.6659 64.43215,-2.65723 96.61859,-5.56 0.99,-0.99 1.98,-1.98 3,-3 7.53913,-31.13848 4.45289,-65.0504 1,-96.58203 -11.09044,-98.62606 -36.06068,-195.58466 -86.16729,-366.7356 -0.78936,-2.54274 -1.57676,-5.08608 -2.36347,-7.62964 -21.11507,-68.22347 -44.66535,-135.85233 -71.46924,-202.05273 -0.26943,-0.66651 -0.53887,-1.33301 -0.81646,-2.01972 -24.39781,-62.57809 -24.39781,-62.57809 -60.18354,-118.98029 -4.39161,-2.42535 -8.25704,-3.63287 -13.19531,-4.46484 -1.03868,-0.17726 -1.03868,-0.17726 -2.09834,-0.35811 -2.27533,-0.38337 -4.55289,-0.75026 -6.83135,-1.11455 -0.78899,-0.12878 -1.57799,-0.25757 -2.3909,-0.39025 -83.20703,-13.535507 -170.00692,-13.712804 -253.2966,-0.60975 -0.78905,0.1238 -1.57811,0.24759 -2.39108,0.37513 -16.55274,2.45704 -16.55274,2.45704 -32.23392,7.99987 -7.76414,4.56715 -14.31227,10.64389 -20.18017,17.43458 -20.98891,25.47786 -36.59853,54.78348 -51.38233,84.12793 -0.5862,1.1616 -1.1724,2.32321 -1.77636,3.52002 -42.28579,84.32775 -73.46501,175.03767 -144.22363,414.47998 -0.25054,0.97918 -0.50109,1.95837 -0.75922,2.96722 -15.88234,62.20213 -29.69101,125.22745 -37.24078,189.03278 -0.12456,1.0472 -0.24911,2.0944 -0.37744,3.17334 -1.42186,12.24481 -2.20724,24.5081 -2.62256,36.82666 -0.0425,1.20914 -0.0851,2.41828 -0.12891,3.66406 -0.12141,6.91213 0.34078,13.71222 1.00391,20.58594 0.0784,0.81597 0.15678,1.63195 0.23755,2.47265 0.61503,5.84013 1.64945,11.53849 2.88745,17.27735 85.35254,7.39621 172.38685,3.13861 286.69411,0.7288 40.04482,-0.90126 40.04482,-0.90126 59.30588,-0.7288 0.0508,-7.13498 0.0858,-14.26991 0.10987,-21.40503 0.01,-2.4258 0.0237,-4.85159 0.041,-7.27735 0.0243,-3.49262 0.0356,-6.98508 0.0444,-10.47778 0.0103,-1.07943 0.0206,-2.15887 0.0313,-3.27101 8.2e-4,-5.59528 -0.33639,-10.28736 -2.2266,-15.56883 -3.51777,-2.71882 -6.7703,-4.40979 -11.00781,-5.78125 -31.55789,-9.22716 -64.65017,-10.86054 -97.32519,-8.84082 -11.5113,0.74892 -23.01247,1.62597 -34.51075,2.55175 -1.08851,0.0875 -2.17702,0.17501 -3.29852,0.26516 -5.47916,0.44306 -10.95684,0.89925 -16.43341,1.37327 -13.68287,1.15767 -27.2698,1.77727 -41.00244,1.74756 -3.05505,-0.003 -6.10914,0.0205 -9.16406,0.0457 -18.58677,0.0603 -37.14928,-1.53599 -55.19532,-6.17383 -1.53322,-0.37923 -1.53322,-0.37923 -3.09741,-0.76612 -8.86049,-2.25524 -17.44529,-5.11659 -25.96509,-8.42138 0,-2.64 0,-5.28 0,-8 5.25068,-4.49873 10.44425,-8.12913 16.83203,-10.81641 33.19254,-12.40116 71.04562,-13.72006 106.16797,-14.18359 1.23225,-0.0164 1.23225,-0.0164 2.48938,-0.0332 42.04876,-0.52179 84.06347,0.74405 126.07325,2.46061 10.86364,0.44101 21.6895,0.70736 32.56237,0.6351 1.375,-0.005 2.75,-0.01 4.125,-0.0137 3.25006,-0.0114 6.5,-0.0276 9.75,-0.0488 2.32886,-8.43797 2.27499,-16.75884 2.20581,-25.43335 -0.0184,-2.39147 -0.0205,-4.78255 -0.0203,-7.17407 -0.005,-1.53321 -0.0107,-3.06641 -0.0176,-4.59961 -0.002,-1.06261 -0.002,-1.06261 -0.003,-2.14669 -0.035,-3.66968 -0.29657,-7.07676 -1.1646,-10.64628 -1.6405,-0.65927 -3.2878,-1.30161 -4.9375,-1.9375 -1.37478,-0.53948 -1.37478,-0.53948 -2.77734,-1.08985 -22.52809,-6.67003 -50.3587,-2.98236 -73.66129,-2.62002 -8.5171,0.13202 -17.03455,0.23766 -25.55198,0.34574 -2.81527,0.0358 -5.63054,0.0722 -8.4458,0.10868 -110.77662,1.4247 -110.77662,1.4247 -138.0714,-7.75627 -3.24278,-1.33381 -5.82141,-2.86416 -8.55469,-5.05078 -0.99,-1.65 -1.98,-3.3 -3,-5 0.99,-2.64 1.98,-5.28 3,-8 4.7728,-5.31517 9.65296,-9.04089 15.91407,-12.4961 7.92961,-3.86443 16.10812,-4.86147 24.79058,-5.8273 8.07735,-0.84013 16.09164,-0.96624 24.20527,-0.95126 1.60102,-0.004 3.20203,-0.01 4.80305,-0.0155 4.29456,-0.0132 8.58903,-0.014 12.88361,-0.0114 3.6237,10e-4 7.24739,-0.004 10.87109,-0.009 8.58167,-0.011 17.1633,-0.0116 25.74498,-0.005 8.74979,0.006 17.49941,-0.006 26.24917,-0.0276 7.59322,-0.0178 15.18638,-0.0236 22.77962,-0.0204 4.49847,0.002 8.99682,-4.9e-4 13.49527,-0.0147 30.22589,-0.0874 60.08402,1.43005 89.95079,6.37832 1.58382,0.25108 3.1678,0.50107 4.75196,0.75 9.88814,1.56931 19.73016,3.35434 29.56054,5.25 2.475,2.475 2.475,2.475 5,5 1.31516,31.78538 1.18783,63.59382 1.18511,95.39975 3.6e-4,6.05232 0.012,12.10459 0.0259,18.1569 0.0132,5.94244 0.0184,11.88485 0.0178,17.8273 -2.5e-4,3.50578 0.002,7.01149 0.0132,10.51725 0.0508,19.87069 -0.12786,39.80992 -3.79574,59.40544 -0.9013,5.43935 -1.19204,10.94743 -1.57129,16.44336 -0.12955,1.7789 -0.12955,1.7789 -0.26172,3.59375 -0.2094,2.8851 -0.41375,5.77045 -0.61328,8.65625 -0.99,1.98 -1.98,3.96 -3,6 -4.98399,2.33584 -9.67095,3.72718 -15.125,4.5625 -0.77206,0.12294 -1.54413,0.24589 -2.3396,0.37256 -23.40868,3.57545 -46.99803,4.22647 -70.63305,4.26806 -2.44739,0.007 -4.89477,0.014 -7.34215,0.0211 -7.198,0.0178 -14.39598,0.024 -21.594,0.0253 -2.03357,4.4e-4 -4.06714,10e-4 -6.10072,0.002 -45.91208,0.0169 -91.71365,-0.7743 -137.56944,-3.13448 -3.12398,-0.1596 -6.24819,-0.31443 -9.37241,-0.46932 -45.66337,-2.26624 -91.34649,-4.88292 -136.861123,-9.27298 -1.166763,-0.11094 -2.333525,-0.22188 -3.535645,-0.33618 -5.395234,-0.55643 -10.375569,-1.32417 -15.526855,-3.03882 -0.99,-1.32 -1.98,-2.64 -3,-4 -2.646091,-9.87741 -3.939231,-19.66583 -4.935303,-29.81934 -0.25124,-2.54596 -0.519358,-5.08975 -0.789306,-7.63379 -9.185835,-89.18805 20.699178,-186.73847 44.164842,-280.71812 2.17012,-8.61379 4.36017,-17.22245 6.55977,-25.82875 0.28446,-1.11333 0.56892,-2.22666 0.862,-3.37372 21.09175,-82.39 45.74064,-164.2176 82.13799,-268.62628 0.31691,-0.89121 0.63382,-1.78241 0.96033,-2.70063 17.64244,-49.59019 36.63952,-98.64533 59.03967,-146.29937 0.70456,-1.50966 0.70456,-1.50966 1.42334,-3.04981 12.75017,-27.27012 26.38192,-54.56988 45.57666,-77.950195 0.66387,-0.828867 1.32774,-1.657734 2.01172,-2.511718 4.93531,-5.896342 10.4463,-10.450329 16.98828,-14.488282 24.35329,-13.343869 52.6285,-18.825046 79.79502,-23.001922 14.68012,-2.20679 29.40202,-3.864733 44.20498,-4.998078 0.67924,-0.05221 1.35847,-0.104414 2.05829,-0.158203 42.17354,-3.180963 84.77363,-2.995187 126.94171,0.158203 z"
     fill="#000000"
     id="path5" />
  <path
     d="m 587.4709,209.16815 c 5.23037,1.54541 10.34845,3.33903 15.43799,5.2959 0.66903,0.25475 1.33805,0.5095 2.02735,0.77197 15.50811,6.02715 30.51869,14.83205 43.18701,25.646 14.49879,12.84552 26.32637,26.62876 35.81225,43.51733 9.60468,17.75598 15.43837,37.34326 18.68824,57.22876 0.51183,3.60899 0.93262,7.20814 1.28515,10.83594 0.11086,1.10988 0.22172,2.21976 0.33594,3.36328 2.64994,31.04723 -0.97197,62.77488 -8.14844,93.01172 -3.08693,10.50792 -8.16687,20.18217 -14.625,29 -10.97801,13.8955 -23.49032,26.85069 -37.5625,37.625 -0.84667,0.65331 -0.84667,0.65331 -1.71045,1.31982 -13.89698,10.67017 -28.85036,20.01303 -45.625,25.43506 -18.08955,5.41551 -35.81271,7.1946 -54.66455,6.24512 -16.23216,-1.2887 -32.67403,-5.52769 -47.52148,-12.17725 -13.43351,-6.31223 -25.22518,-14.12345 -36.47852,-23.82275 -0.72961,-0.60715 -1.45922,-1.2143 -2.21093,-1.83985 -4.76163,-4.02275 -8.87459,-8.31329 -12.78907,-13.16015 -0.42217,-0.49968 -0.84433,-0.99935 -1.27929,-1.51416 -4.68037,-5.5846 -8.99857,-11.19142 -11.61914,-18.04834 -1.61781,-4.74875 -2.91257,-9.56573 -4.10157,-14.4375 -0.20206,-0.82097 -0.40412,-1.64195 -0.6123,-2.4878 -4.48988,-18.57844 -5.59544,-37.17855 -4.18555,-56.24609 0.52045,-4.54947 1.51846,-8.87548 2.79785,-13.26611 0.19336,-0.67064 0.38672,-1.34127 0.58594,-2.03223 3.65435,-12.31086 9.12235,-23.58201 16.60547,-34.02637 2.17859,-2.74759 4.43935,-5.35678 6.80859,-7.9414 0.83145,-0.91266 1.66289,-1.82532 2.51953,-2.76563 8.87015,-9.29872 18.54196,-16.40726 29.99024,-22.23828 12.50643,-6.11182 25.59709,-10.50126 39.49023,-11.99609 13.03364,-0.69515 25.8683,-0.78304 38.47657,2.875 1.16273,0.37125 2.32546,0.7425 3.52343,1.125 0.93586,0.28875 1.87172,0.5775 2.83594,0.875 7.07766,2.50062 13.22429,6.5916 19.16406,11.125 6.66032,5.63047 11.82994,11.89358 16.24219,19.41406 3.75523,7.66068 6.39763,16.15968 7.75781,24.58594 0.16411,2.90332 0.18772,5.80344 0.20313,8.71093 0.006,0.8452 0.0114,1.69039 0.0173,2.56119 0.009,1.7903 0.016,3.58062 0.0198,5.37094 0.01,2.68832 0.0406,5.37584 0.0723,8.06397 0.0804,13.01702 -1.19503,24.61627 -5.5625,36.98047 -3.30187,8.04708 -7.43514,15.68671 -12.875,22.5 -4.87172,5.23138 -10.77638,9.16167 -16.875,12.8125 -5.47361,2.70151 -10.93177,5.10133 -17,6 -6.76151,0.42173 -13.58423,0.72019 -20.24218,-0.6836 -5.31232,-1.81341 -10.19389,-4.36471 -14.75782,-7.63281 -2.67001,-2.24761 -4.76267,-4.5563 -6.71484,-7.44922 -2.47789,-4.30807 -4.24668,-8.35296 -5.28516,-13.23437 -0.74937,-6.95035 -0.56675,-13.88451 0.6836,-20.75782 0.68775,-2.78392 1.43349,-5.51461 2.3164,-8.24218 0.66,0 1.32,0 2,0 0.5195,1.06218 1.03899,2.12437 1.57422,3.21875 3.51601,7.14 7.0031,14.14722 11.42578,20.78125 8.89385,4.19914 8.89385,4.19914 14.4375,4.1875 3.58963,-0.0152 6.74371,-0.28477 10.1875,-1.3125 3.89405,-1.48247 7.11255,-3.40846 10.33985,-6.03907 5.12493,-4.62325 9.74866,-9.27341 13.05468,-15.39453 3.73906,-7.43384 6.89183,-15.15398 7.98047,-23.4414 0.59214,-7.81731 0.89244,-15.944 -1.1875,-23.5625 -1.72609,-4.72835 -4.00798,-9.25638 -6.8125,-13.4375 -0.97096,-1.02822 -1.96303,-2.03839 -3,-3 0,-0.66 0,-1.32 0,-2 -0.5891,-0.28102 -1.1782,-0.56203 -1.78515,-0.85157 -2.02682,-1.05094 -3.78532,-2.21776 -5.65235,-3.52343 -5.40352,-3.42663 -11.39996,-5.06525 -17.5625,-6.625 -9.0738,-1.90298 -19.08441,-1.86743 -28.26562,-0.71582 -8.60246,1.48551 -16.65793,4.49579 -24.35156,8.61425 -8.25168,5.12634 -15.23633,11.27259 -21.25782,18.91407 -6.7275,9.58608 -11.38432,19.64547 -14.55249,30.86548 -3.08713,11.63632 -4.33942,23.29114 -3.57251,35.32202 1.14229,10.73147 3.57764,21.12178 8,31 4.20045,7.95984 9.71062,14.60383 16,21 1.03061,1.04994 1.03061,1.04994 2.08203,2.12109 7.07492,6.73364 15.42466,11.41902 24.28516,15.38672 10.25275,4.10602 20.94246,7.12627 32.01929,7.65332 3.85045,0.046 7.7003,0.0855 11.55102,0.0889 0.69569,6.7e-4 1.39138,10e-4 2.10816,0.002 10.27893,-0.0159 19.98564,-0.41691 29.95434,-3.25204 1.22719,-0.34032 2.45438,-0.68063 3.71875,-1.03125 14.70855,-4.49766 28.95464,-11.74117 41.28125,-20.96875 4.24482,-3.41983 8.14791,-7.14791 12,-11 0.8018,-0.8018 1.6036,-1.6036 2.42969,-2.42969 9.37715,-9.8963 16.25789,-21.6361 21.72656,-34.06641 7.75309,-18.49401 12.10181,-38.98561 13.10254,-58.99804 0.17915,-4.60605 0.23236,-9.20917 0.24121,-13.81836 0.004,-0.71319 0.009,-1.42637 0.0136,-2.16117 0.0384,-14.90253 -2.2343,-29.39827 -7.00189,-43.54196 -4.39617,-12.06045 -10.81949,-24.07238 -18.97265,-33.97265 -9.12038,-10.46538 -19.55568,-19.06951 -31.6211,-25.91407 -17.08016,-9.32849 -35.22328,-14.55212 -54.35278,-17.72168 -24.2135,-3.54894 -49.23302,-1.9052 -73.13159,2.91309 -24.92049,5.30486 -49.46166,13.87612 -71.2334,27.32251 -1.74639,1.11101 -3.47657,2.24245 -5.2002,3.38843 -0.58153,0.38623 -1.16305,0.77247 -1.7622,1.17041 -17.2456,11.60314 -32.38877,25.32843 -44.68311,42.13427 -9.27803,13.08189 -16.80432,27.90461 -21.06445,43.4021 -0.53064,2.09149 -1.02072,4.1872 -1.49024,6.29322 -0.16081,0.71237 -0.32162,1.42473 -0.4873,2.15869 -3.5405,16.47975 -3.76708,33.79991 -1.79004,50.51123 2.89416,20.37553 9.53843,39.77836 18.27734,58.33008 0.32581,0.70383 0.65162,1.40765 0.98731,2.13281 9.44996,20.29049 21.52418,41.54657 37.01269,57.86719 2.0807,1.91235 4.256,3.65871 6.5,5.375 0.60675,0.46841 1.21349,0.93682 1.83863,1.41943 19.78589,15.05965 41.61828,25.27018 65.28857,32.69263 23.33185,6.95261 47.1531,8.90362 71.3728,7.51294 22.57054,-1.84776 46.10727,-7.07463 67,-16 0.99,-0.66 1.98,-1.32 3,-2 1.32,0 2.64,0 4,0 -0.66,1.65 -1.32,3.3 -2,5 -9.73935,10.22031 -22.89574,17.06697 -35.39966,23.33301 -17.95545,8.63031 -37.43965,14.16816 -57.22607,16.48388 -21.59869,1.66571 -42.99149,0.27471 -63.87427,-5.50439 -21.99728,-6.46668 -42.94813,-15.98294 -61.59375,-29.39844 -6.84669,-5.05236 -13.42022,-10.40975 -19.90625,-15.91406 -0.57879,-0.48018 -1.15758,-0.96035 -1.7539,-1.45508 -9.88423,-8.2445 -17.13592,-17.86242 -24.2461,-28.54492 -0.4009,-0.5999 -0.80179,-1.1998 -1.21484,-1.81787 -14.25509,-21.5919 -26.66764,-48.21334 -33.07153,-73.3396 -3.76662,-15.9601 -6.79031,-32.38033 -6.95191,-48.81128 -0.01,-0.82977 -0.0197,-1.65953 -0.0298,-2.51444 -0.24479,-26.01101 1.60092,-50.03476 10.26321,-74.78976 7.6876,-20.86262 18.7201,-39.71083 33.00488,-56.72705 16.72755,-19.28588 35.94188,-34.27047 58,-47 0.95641,-0.55664 0.95641,-0.55664 1.93213,-1.12451 24.34092,-14.03015 51.53439,-21.56688 78.99365,-26.59424 31.41232,-5.11626 63.99814,-2.99723 94.63623,5.42285 z"
     fill="#000000"
     id="path7" />
</svg>
