<?xml version="1.0" encoding="UTF-8" standalone="no"?>
<svg
   version="1.1"
   width="1000"
   height="1000"
   id="svg8"
   sodipodi:docname="ATLA_Fire.svg"
   inkscape:version="1.4.4 (dcaf3e7, 2026-05-05)"
   xmlns:inkscape="http://www.inkscape.org/namespaces/inkscape"
   xmlns:sodipodi="http://sodipodi.sourceforge.net/DTD/sodipodi-0.dtd"
   xmlns="http://www.w3.org/2000/svg"
   xmlns:svg="http://www.w3.org/2000/svg">
  <defs
     id="defs8" />
  <sodipodi:namedview
     id="namedview8"
     pagecolor="#ffffff"
     bordercolor="#000000"
     borderopacity="0.25"
     inkscape:showpageshadow="2"
     inkscape:pageopacity="0.0"
     inkscape:pagecheckerboard="0"
     inkscape:deskcolor="#d1d1d1"
     inkscape:zoom="1.0219579"
     inkscape:cx="338.56581"
     inkscape:cy="372.32454"
     inkscape:window-width="2256"
     inkscape:window-height="1398"
     inkscape:window-x="-11"
     inkscape:window-y="-11"
     inkscape:window-maximized="1"
     inkscape:current-layer="svg8" />
  <path
     d="M 665.87109,30.339844 C 682.65797,36.304582 698.88464,43.435799 715,51 c 0.93424,0.43812 1.86849,0.87624 2.83105,1.327637 C 753.52697,69.236584 786.74279,91.696229 817,117 c 0.79011,0.66056 0.79011,0.66056 1.59619,1.33447 12.85019,10.78037 25.01949,22.20741 36.90381,34.04053 0.74153,0.73686 1.48306,1.47372 2.24707,2.23291 4.62243,4.63602 8.98618,9.42904 13.25293,14.39209 1.02166,1.15651 2.04505,2.31151 3.07031,3.46484 8.1022,9.18065 15.64043,18.69923 22.92969,28.53516 0.54688,0.73653 1.09377,1.47307 1.65722,2.23193 34.51192,46.661 60.83428,99.01945 77.36696,154.65392 16.51202,56.41464 23.03022,115.31632 19.47582,174.00477 -3.7414,56.83825 -16.86796,112.70076 -39.42969,165.02564 -1.63806,3.71906 -3.35067,7.40185 -5.07031,11.08374 -0.6451,1.39653 -0.6451,1.39653 -1.30323,2.82129 C 930.011,753.31517 904.38313,791.46093 874,827 c -0.87399,1.02867 -0.87399,1.02867 -1.76563,2.07812 -12.45924,14.47286 -25.75098,28.99084 -40.35547,41.32422 -2.3023,1.95767 -4.52261,3.99699 -6.7539,6.03516 -4.88844,4.40033 -9.93119,8.52901 -15.125,12.5625 -0.602,0.46921 -1.20399,0.93843 -1.82422,1.42187 -46.13399,35.89206 -97.33493,64.29557 -152.8916,82.8169 C 625.11938,982.9659 594.3459,989.56321 563,994 c -1.26892,0.18079 -2.53785,0.36158 -3.84522,0.54785 C 519.75149,999.82681 477.35038,999.54268 438,994 c -1.92707,-0.25741 -1.92707,-0.25741 -3.89307,-0.52002 C 404.80431,989.54029 376.1667,983.04002 348,974 c -1.07025,-0.34257 -2.14049,-0.68514 -3.24317,-1.03809 C 327.39054,967.33399 310.63104,960.51364 294,953 c -1.08201,-0.48872 -2.16402,-0.97744 -3.27881,-1.48096 -14.85298,-6.77524 -29.0209,-14.42962 -42.99072,-22.87012 -2.53808,-1.53274 -5.08563,-3.04815 -7.63672,-4.55908 -23.42415,-13.96851 -45.61228,-30.62444 -65.77344,-48.98438 -2.02186,-1.83464 -4.0671,-3.63315 -6.13281,-5.41796 -11.69734,-10.21159 -23.31306,-20.78762 -33.39453,-32.61719 -2.12444,-2.45305 -4.33486,-4.81735 -6.54297,-7.19531 -4.7592,-5.21931 -9.1219,-10.67438 -13.4336,-16.26563 -1.77987,-2.30286 -3.59612,-4.55985 -5.47656,-6.78125 C 93.49823,787.96354 80.22154,766.34021 68,745 67.33146,743.84806 67.33146,743.84806 66.64941,742.67285 38.80153,694.5138 20.71142,640.39247 11.01806,585.73681 7.07082,562.81801 4.36733,539.26024 4,516 3.9795,514.91251 3.9591,513.82503 3.938,512.70459 2.9772,453.66693 11.12564,394.90789 30.25002,338.9375 c 10.9596,-31.69319 24.7512,-62.02566 41.75,-90.9375 0.46374,-0.79213 0.92748,-1.58426 1.40527,-2.40039 C 84.63098,226.52658 97.24912,208.33455 111.00002,191 c 0.77601,-0.9784 1.55203,-1.9568 2.35156,-2.96485 15.99348,-19.80283 33.17858,-39.75585 52.61328,-56.27734 2.44344,-2.11045 4.79434,-4.31074 7.16016,-6.50781 5.21225,-4.75277 10.6601,-9.11006 16.24218,-13.41797 2.37555,-1.83645 4.71007,-3.70928 7.01563,-5.63281 C 207.62299,96.866411 219.73062,88.908278 232.00002,81 c 0.90588,-0.58459 1.81177,-1.169179 2.74511,-1.771484 C 283.66736,47.852697 337.37679,26.18402 393.97328,13.44989 484.24306,-6.588016 578.6772,0.230174 665.87109,30.339844 Z M 334,92.875 c -28.41229,11.48175 -55.7863,25.63808 -81,43.125 -0.63906,0.44069 -1.27811,0.88139 -1.93653,1.33545 C 228.87763,152.66413 207.88022,169.70432 189,189 c -2.65384,2.66735 -5.32222,5.31803 -8.01563,7.94531 -5.95398,5.83501 -11.57906,11.72692 -16.76172,18.27344 -1.96219,2.45532 -3.9877,4.83781 -6.0498,7.20922 C 140.08003,243.33603 125.26906,266.81092 112,291 c -0.49355,0.89525 -0.9871,1.7905 -1.49561,2.71289 C 95.74368,320.66933 85.09784,348.73398 76,378 c -0.33258,1.06976 -0.66516,2.13952 -1.00782,3.2417 -6.81096,22.36957 -11.07395,45.95495 -13.6997,69.17285 -0.19144,1.69225 -0.39257,3.38343 -0.6045,5.07324 C 56.90658,486.17514 57.00902,519.34183 61,550 c 0.16129,1.24636 0.32258,2.49272 0.48877,3.77685 7.17586,54.28984 23.31349,105.31964 48.26123,154.0669 11.62905,22.29131 25.82988,43.32449 41.25,63.15625 1.04027,1.34384 1.04027,1.34384 2.10156,2.71484 C 169.21614,794.17307 187.1058,814.14762 207,831 c 0.99129,0.86882 1.98257,1.73765 3.0039,2.63281 C 235.61647,856.02468 263.93002,875.11873 294,891 c 0.88462,0.4676 1.76923,0.93521 2.68066,1.41699 C 341.90092,916.11272 390.60268,930.7079 441,938 c 1.8125,0.26901 1.8125,0.26901 3.66162,0.54345 C 481.77848,943.7952 521.9182,943.48784 559,938 c 1.77455,-0.25741 1.77455,-0.25741 3.58496,-0.52002 51.76144,-7.73312 101.18234,-23.82414 147.3125,-48.49475 C 723.35431,881.67954 736.47519,873.81181 749,865 c 1.12627,-0.77999 2.25258,-1.55993 3.3789,-2.33985 12.57837,-8.78478 25.0577,-18.02534 36.28516,-28.5 2.00513,-1.85425 4.04066,-3.6539 6.10156,-5.44531 C 807.22263,817.84498 818.98333,806.32531 830,794 c 0.51369,-0.57428 1.02738,-1.14856 1.55664,-1.74024 C 839.87721,782.89245 847.51497,773.04149 855,763 c 0.54301,-0.72204 1.08603,-1.44408 1.6455,-2.18799 8.06042,-10.74483 15.21804,-21.82862 21.96534,-33.43946 1.29108,-2.20505 2.60824,-4.39108 3.93994,-6.57177 C 905.55674,682.94726 921.50121,640.19977 931,597 c 0.32992,-1.49516 0.32992,-1.49516 0.6665,-3.02051 2.86933,-13.28355 4.94176,-26.62227 6.5835,-40.10449 0.0831,-0.67707 0.16616,-1.35414 0.25177,-2.05173 2.00705,-16.56713 2.70664,-32.96846 2.68573,-49.63577 -6.1e-4,-0.89658 -10e-4,-1.79315 -0.002,-2.71689 -0.0928,-50.991 -8.9553,-101.37089 -26.33094,-149.35343 -4.17318,-11.24094 -8.87577,-22.21293 -13.85473,-33.11718 -0.36416,-0.81195 -0.72832,-1.6239 -1.10352,-2.46045 -12.05428,-26.84667 -27.43734,-52.55408 -45.52344,-75.76953 -1.32253,-1.7049 -2.62441,-3.42344 -3.91992,-5.14893 -6.15368,-8.16755 -12.69809,-15.94763 -19.45312,-23.62109 -0.79149,-0.90493 -1.58297,-1.80985 -2.39844,-2.74219 -5.97825,-6.67474 -12.26564,-13.04931 -18.57626,-19.40775 -0.99961,-1.00765 -1.99774,-2.01677 -2.99421,-3.02752 -5.91835,-5.99413 -11.99748,-11.62594 -18.60189,-16.86698 -2.34707,-1.88944 -4.58236,-3.8588 -6.8042,-5.89306 C 748.32175,132.23079 706.62383,109.23145 665.39569,92.548798 618.20171,73.663479 567.62482,62.587883 516.76742,60.927094 511.40775,60.7933 506.04869,60.753986 500.6875,60.75 499.85461,60.749326 499.02173,60.7487 498.1636,60.748 441.77325,60.81939 386.4003,72.09948 334,92.875044 Z"
     fill="#000000"
     id="path1" />
  <path
     d="m 500,85 c 1.65,0 3.3,0 5,0 0.99,1.32 1.98,2.64 3,4 0.10957,0.799219 0.21914,1.598438 0.33203,2.421875 1.10856,7.67878 2.62109,15.097155 4.66797,22.578125 0.30341,1.11029 0.60683,2.22057 0.91943,3.3645 9.91754,35.44346 24.69038,68.68215 41.03974,101.54206 1.05258,2.11707 2.10205,4.23565 3.15069,6.35467 7.38146,14.91008 14.85304,29.76363 22.67286,44.44971 28.09919,52.83957 56.59198,106.89004 65.34683,166.76989 3.40976,24.32226 6.2412,49.49275 5.93295,74.08167 -0.005,0.73412 -0.009,1.46824 -0.0137,2.22461 -0.0114,1.73767 -0.0293,3.47529 -0.0488,5.21289 -0.99,0.99 -1.98,1.98 -3,3 -5.39472,0.93012 -9.78626,0.99195 -15.1875,0.0625 -13.42979,-2.11744 -27.45532,-2.059 -40.81812,0.5249 -10.2048,2.19245 -20.18615,5.35695 -29.24438,10.62744 -8.36498,5.43011 -16.18059,11.41219 -22.6875,19.01953 C 535.04194,559.3074 530.09686,568.4102 527,578 c -0.29777,0.87785 -0.59555,1.7557 -0.90234,2.66016 -2.91571,10.19826 -2.87641,20.83881 -2.34766,31.36425 0.83561,9.94575 3.83889,19.27274 7.95508,28.32325 4.052,8.36179 9.26708,15.61338 15.29492,22.65234 0.63422,0.74766 1.26844,1.49531 1.92187,2.26562 5.68678,6.17283 12.78195,10.68162 20.07813,14.73438 8.86001,4.43001 18.04116,6.90755 27.75,8.6875 14.52027,1.40422 28.36074,-0.24751 42.46484,-3.68359 16.85654,-4.4149 32.74256,-12.04533 47.11621,-21.84131 9.76685,-6.80365 19.25515,-14.90862 26.25489,-24.62354 7.20324,-10.56349 11.40581,-21.71653 14.61718,-33.99609 3.67769,-16.35129 2.88897,-34.97086 0.77271,-51.58032 -3.7822,-25.53618 -10.56478,-50.54636 -17.10815,-75.47852 C 698.96568,432.10348 689.30265,385.79467 685,339 c -0.0914,-0.91354 -0.18272,-1.82708 -0.27686,-2.76831 C 681.54447,300.95176 684.04118,266.23148 693,232 c 1.55427,-5.70199 3.22564,-11.36287 5,-17 1.65,-1.65 3.3,-3.3 5,-5 0.66,0 1.32,0 2,0 0.0929,0.91749 0.18579,1.83498 0.28149,2.78027 1.06636,9.25556 3.08223,17.63927 6.15601,26.46973 0.44845,1.31102 0.89686,2.62205 1.34521,3.93311 4.5421,13.15548 9.70441,26.03909 15.21729,38.81689 0.28917,0.67096 0.57835,1.34191 0.87628,2.0332 11.30588,26.18569 23.54877,51.87375 36.32546,77.36956 1.78696,3.56729 3.56099,7.14002 5.30998,10.72615 5.8559,11.96858 12.25677,23.57462 18.90527,35.11963 1.48623,2.58324 2.96184,5.17223 4.43457,7.76318 4.55276,7.97587 9.26237,15.81396 14.21094,23.55078 18.46983,29.03456 31.99239,60.22562 39.8125,93.8125 6.7134,30.52737 7.81347,61.62954 3.73437,92.58984 -4.64308,32.0287 -15.19871,62.53907 -30.25781,91.13672 C 816.70352,724.7154 811.6801,733.02287 806,741 c -0.49484,0.69706 -0.98968,1.39412 -1.49951,2.1123 -7.51192,10.53222 -15.38481,20.571 -24.01221,30.20997 -2.53568,2.85847 -5.01142,5.76829 -7.48828,8.67773 -0.66,0 -1.32,0 -2,0 -0.66,1.32 -1.32,2.64 -2,4 -8.74657,8.34068 -17.47477,16.54791 -27,24 -0.89719,0.72703 -1.79438,1.45406 -2.71875,2.20312 -15.66833,12.4522 -32.62181,23.41783 -50.31836,32.74708 -1.81337,0.96984 -3.60054,1.98827 -5.38477,3.01074 C 649.31814,867.30125 609.35157,878.7848 570.8125,885.25 557.92084,887.3729 545.05163,889.22068 532,890 c -0.91411,0.0549 -1.82821,0.10989 -2.77002,0.1665 C 483.65039,892.77699 438.31819,888.06947 394.4375,875.25 350.10075,861.86514 308.2042,841.66804 271,814 258.27656,804.4474 245.93789,794.33122 234.89063,782.86328 233.13027,780.93626 233.13027,780.93626 231,780 c 0,-0.66 0,-1.32 0,-2 -0.99,-0.33 -1.98,-0.66 -3,-1 -0.3893,-0.44988 -0.77859,-0.89977 -1.17969,-1.36328 -3.92684,-4.51592 -3.92684,-4.51592 -7.98437,-8.91406 -20.32274,-21.5122 -37.23144,-47.91166 -49.16211,-74.9607 -11.56228,-27.24862 -18.24437,-55.29826 -19.84229,-84.88061 -1.03253,-26.70324 2.90731,-53.54637 10.917,-79.0105 C 164.68338,515.85433 169.45924,504.35742 175,493 c 0.38962,-0.81437 0.77924,-1.62873 1.18066,-2.46777 10.19587,-21.14545 23.83291,-40.31719 37.6709,-59.20801 C 219.70925,423.31748 225.34124,415.14787 231,407 c 0.48179,-0.69303 0.96357,-1.38606 1.45996,-2.1001 25.64691,-36.94137 49.97594,-74.84776 71.24121,-114.49463 1.12906,-2.09087 2.27709,-4.16874 3.43946,-6.24121 10.16799,-18.39331 17.83579,-37.79774 24.12158,-57.82177 0.87946,-2.79206 1.80093,-5.56901 2.73779,-8.34229 0.66,0.33 1.32,0.66 2,1 7.52799,23.90621 10.95277,45.86088 10,71 -0.95388,13.83363 -4.56979,26.91554 -9,40 -0.22526,0.67418 -0.45053,1.34836 -0.68262,2.04297 -6.36771,18.76999 -15.41809,36.58312 -24.75195,54.02148 -17.29546,32.43304 -33.19057,64.58567 -39.09595,101.2273 -2.76195,21.81555 -0.85195,44.86139 3.74341,66.24341 5.24833,23.10306 12.81382,44.21979 25.41553,64.35205 3.45097,5.31589 7.30032,10.2575 11.37158,15.11279 0.71374,0.85586 0.71374,0.85586 1.44189,1.729 2.52219,3.01167 5.07432,5.99163 7.67139,8.93897 1.76181,2.0028 3.38546,3.99547 4.99219,6.13281 4.72815,5.98782 10.007,9.78559 16.44897,13.80151 C 360.09692,673.55505 377.2887,682.87989 396,688 c 1.14855,0.31711 2.29711,0.63422 3.48047,0.96094 11.66948,2.7742 23.85055,2.93845 35.77148,1.82959 C 438.86689,690.3529 442.43793,689.75274 446,689 c -0.66,-1.98 -1.32,-3.96 -2,-6 -0.47309,-0.44988 -0.94617,-0.89977 -1.43359,-1.36328 -4.79692,-4.66601 -9.05079,-9.58352 -13.22657,-14.8086 -2.27866,-2.75417 -4.67951,-5.31096 -7.15234,-7.89062 -21.89365,-23.98841 -35.82037,-57.07413 -48.0625,-86.75 -6.27703,-15.48394 -11.83927,-30.89709 -12.67187,-47.69141 -0.0416,-0.82625 -0.0833,-1.6525 -0.12616,-2.5038 -0.46578,-9.97369 -0.57078,-19.94642 -0.57697,-29.92979 -6.7e-4,-0.99329 -10e-4,-1.98659 -0.002,-3.00998 0.0478,-44.7895 5.86442,-88.93292 21.18563,-131.22879 6.90285,-18.27801 16.09474,-35.91846 26.31397,-52.54883 11.93497,-19.58943 22.42796,-40.14403 33.20752,-60.38476 1.28037,-2.39524 2.57094,-4.78402 3.87305,-7.16748 C 471.45279,189.80923 490.20028,138.6823 500,85 Z"
     fill="#000000"
     id="path3" />
</svg>
